<!DOCTYPE svg PUBLIC "-//W3C//DTD SVG 20010904//EN" "http://www.w3.org/TR/2001/REC-SVG-20010904/DTD/svg10.dtd">
<svg version="1.0" xmlns="http://www.w3.org/2000/svg" width="900px" height="980px" viewBox="0 0 9000 9800" preserveAspectRatio="xMidYMid meet">
<g id="layer101" fill="#00000011" stroke="none">
 <path d="M4466 9792 c-16 -2 -254 -124 -530 -272 -275 -147 -1241 -662 -2146 -1145 -905 -482 -1651 -882 -1659 -888 -8 -7 -22 -30 -32 -52 -18 -38 -19 -152 -18 -2785 0 -1510 4 -2780 8 -2823 9 -88 31 -121 99 -151 20 -9 987 -387 2147 -842 1794 -701 2118 -825 2162 -826 44 -1 110 22 450 155 219 86 1096 429 1948 762 853 333 1636 640 1742 681 106 42 204 85 218 96 59 46 55 -179 55 2899 0 2786 0 2822 -19 2853 -12 19 -49 48 -93 73 -82 47 -4090 2183 -4183 2230 -64 33 -102 42 -149 35z m-116 -3115 l0 -2713 -792 -366 c-436 -202 -1189 -550 -1673 -773 -484 -224 -1015 -470 -1181 -546 -165 -76 -304 -139 -307 -139 -4 0 -7 1158 -7 2573 l0 2572 353 187 c193 104 1081 577 1972 1052 891 476 1623 865 1628 865 4 1 7 -1220 7 -2712z m2286 1661 l1974 -1053 0 -2572 c0 -1415 -2 -2573 -5 -2573 -3 0 -205 92 -448 204 -387 179 -2767 1278 -3309 1529 l-198 92 0 2712 c0 1492 3 2713 6 2713 4 0 895 -474 1980 -1052z m-1213 -5064 c507 -235 1395 -644 1972 -911 578 -267 1054 -488 1058 -493 5 -4 -15 -17 -45 -28 -48 -18 -2621 -1025 -3048 -1192 -751 -295 -847 -331 -870 -327 -14 2 -689 264 -1500 581 -811 318 -1694 664 -1963 769 -268 105 -484 194 -480 198 5 3 591 276 1303 605 712 328 1599 738 1970 910 371 172 677 313 678 314 2 0 418 -192 925 -426z"/>
 </g>
<g id="layer102" fill="#fff" stroke="none">
 <path d="M0 4900 l0 -4900 2248 1 c1236 1 2231 5 2212 9 -34 7 -4240 1649 -4290 1675 -54 28 -72 59 -81 142 -4 43 -8 1313 -8 2823 -1 2633 0 2747 18 2785 10 22 24 45 32 52 8 6 754 406 1659 888 905 483 1871 998 2146 1145 276 148 514 270 530 273 16 2 -982 5 -2218 6 l-2248 1 0 -4900z"/>
 <path d="M4540 9790 c28 -7 4218 -2235 4308 -2291 13 -8 32 -28 43 -45 19 -31 19 -73 19 -2853 0 -3078 4 -2853 -55 -2899 -14 -11 -112 -54 -218 -96 -106 -41 -669 -262 -1252 -490 -583 -227 -1454 -568 -1935 -757 -481 -188 -891 -345 -910 -349 -19 -4 976 -8 2213 -9 l2247 -1 0 4900 0 4900 -2247 -1 c-1255 -1 -2233 -5 -2213 -9z"/>
 <path d="M2715 8524 c-891 -475 -1779 -948 -1972 -1052 l-353 -187 0 -2572 c0 -1415 3 -2573 7 -2573 3 0 142 63 307 139 166 76 697 322 1181 546 484 223 1237 571 1673 773 l792 366 0 2713 c0 1492 -3 2713 -7 2712 -5 0 -737 -389 -1628 -865z"/>
 <path d="M4650 6677 l0 -2712 198 -92 c542 -251 2922 -1350 3309 -1529 243 -112 445 -204 448 -204 3 0 5 1158 5 2573 l0 2572 -1974 1053 c-1085 578 -1976 1052 -1980 1052 -3 0 -6 -1221 -6 -2713z"/>
 <path d="M3820 3386 c-371 -172 -1258 -582 -1970 -910 -712 -329 -1298 -602 -1303 -605 -4 -4 212 -93 480 -198 269 -105 1152 -451 1963 -769 811 -317 1486 -579 1500 -581 23 -4 119 32 870 327 427 167 3000 1174 3048 1192 30 11 50 24 45 28 -4 5 -480 226 -1058 493 -577 267 -1465 676 -1972 911 -507 234 -923 426 -925 426 -1 -1 -307 -142 -678 -314z"/>
 </g>

</svg>