<?xml version="1.0" encoding="utf-8"?>
<!-- Generator: Adobe Illustrator 22.1.0, SVG Export Plug-In . SVG Version: 6.00 Build 0)  -->
<!DOCTYPE svg PUBLIC "-//W3C//DTD SVG 1.1//EN" "http://www.w3.org/Graphics/SVG/1.1/DTD/svg11.dtd">
<svg version="1.1" id="Layer_1" xmlns="http://www.w3.org/2000/svg" xmlns:xlink="http://www.w3.org/1999/xlink" x="0px" y="0px"
	 viewBox="0 0 600 597" style="enable-background:new 0 0 600 597;" xml:space="preserve">
<style type="text/css">
	.st0{fill:#414042;}
	.st1{fill:#FFFFFF;}
</style>
<rect class="st0" width="600" height="600"/>
<g>
	<g>
		<path class="st1" d="M416.6,312.7v-1.6c0-4.3-1.9-5.8-9.1-5.8c-6.5,0-9.9,1.1-9.9,8.6v5.2C414.5,319.2,416.6,318.2,416.6,312.7z"
			/>
		<path class="st1" d="M505.5,184c-0.4-0.5-0.8-1-1-1.5s-0.4-0.9-0.5-1.3c-0.5-1.5-1.2-3.4-2.9-4.9c-1.3-1.2-3-1.5-4.2-1.7
			c-0.3,0-0.6-0.1-0.9-0.2c-0.1-0.1-0.2-0.3-0.3-0.4c-0.5-0.6-1.1-1.3-2-1.7c-0.9-0.5-2-0.6-3-0.4c-0.2-0.7-0.5-1.6-1.3-2.3
			c-0.7-0.7-1.5-1.1-2-1.5c-0.2-0.1-0.3-0.2-0.4-0.2c-1.3-2.9-2.5-5.9-2.6-5.9c-0.5-1.1-1.6-1.9-2.9-1.9l-102.4,3.1
			c-0.8,0-1.6,0.4-2.2,1c-1.4,1.6-4.2,4-5.7,4c-0.5,0-1.2-0.1-1.9-0.3c-1-0.2-2-0.4-3.5-0.4c-2.3,0-3.8,0.5-4.9,1
			c-0.4,0.2-0.8,0.3-1.2,0.4c-0.7,0.2-1.6,0.3-2.7,0.5c-1.1,0.1-2.3,0.3-3.4,0.6c-0.1-0.1-0.3-0.2-0.4-0.2c-0.7-0.4-1.6-1-2.9-1
			c-0.8,0-1.5,0.2-2.2,0.6c-1.4,0.9-2.2,1.9-2.8,2.6c-0.9,1.1-1.5,2-6.5,2.1c-1.5,0.1-3.6,0.8-7.3,2c-1.6,0.6-3.5,1.2-5.3,1.8
			c-3.9,1.2-5.9,2.6-7.6,3.7c-1.3,0.9-2.2,1.5-3.8,1.9c-0.7,0.2-1.4,0.4-2.1,0.6c-2,0.5-4,1.1-5.5,1.1c-0.4,0-0.7-0.1-0.7,0
			c-0.1-0.1-0.1-0.2-0.3-0.4c-1.1-1.7-2.7-3.4-6.6-3.4c-0.3,0-0.5,0-0.8,0c-2.5,0.1-3.9,1.4-4.9,2.2c-0.3,0.3-0.6,0.5-0.9,0.6
			c-1,0.5-2,0.8-2.9,1.1c-1.5,0.5-3,1.1-4.5,1.9c-1.5,0.9-3.1,1.2-5.9,1.2c-1.3,0-2.7-0.1-4.4-0.1c-0.3-0.1-1.2-0.5-2-0.8
			c-2.5-1.1-6.4-2.8-10.4-3.4c-1.2-0.2-2.1-0.3-3.1-0.5c-2.7-0.4-4.5-0.7-9.2-0.8h-0.7c-5.6,0-10.7,1-15.1,3.1
			c-1.4,0.7-3,1.5-4.6,2.3c-5.1,2.6-11.4,5.8-15.3,5.9h-0.3c-3.6,0-7.6-1.8-11.1-3.4c-0.9-0.4-2-0.8-3.2-1.1c-1.8-0.6-4-1.3-4.7-2.1
			c-0.1-0.3,0.1-1.2,0.1-1.8c0.1-1,0.4-2.4,0.3-4c-0.1-1.8-0.8-2.9-1.3-3.5c-0.3-0.4-0.4-0.5-0.4-1c-0.1-0.9,0-2.2,0.1-3.5
			c0.1-2.2,0.3-4.2-0.3-5.9c-2.1-6.6-5.4-11.5-9.5-13.9c-0.6-0.4-1.4-1-2.1-1.7c-1.9-1.6-3.9-3.3-6.2-3.6c-2.7-0.4-5.3,0.9-7.1,1.8
			c-0.5,0.3-1.6,0.8-1.9,0.8c-0.2,0-0.4,0-0.7,0c-1.8,0-2.1-0.4-2.1-0.5c0-6.4-3.2-8-5.1-8.3c-3.1-0.5-4.8,1-6.1,2.2l-0.1,0.1
			c-0.9-0.1-2.3-0.1-3.4,0.5c-2.8,1.3-3.7,1.3-5.4,1.4c-0.4,0-0.7,0-1.1,0.1c-1.6,0.1-2.8,0.6-3.8,1.4c-1.4-0.7-2.6-1.2-3.8-1.2
			c-1.1,0-2.2,0.5-2.9,1.3c-1.5,1.7-1.2,4.2-0.6,8.9c0,0.2,0.1,0.6,0.3,1.2c0.3,1,0.7,2.7,0.7,4.6c-1,0.5-2.8,1.7-3,4.1
			c-0.1,1,0.2,1.9,0.5,2.8c0.4,1.1,0.8,2.3,0.6,4.2c0,0.4-0.2,0.9-0.5,1.5c-0.6,1.4-1.4,3.3-0.7,5.8c0.3,1.1,0.7,1.8,1,2.3
			c0.4,0.7,0.7,1.3,0.5,4.9c-0.1,1.6-0.5,3.3-0.9,5.2s-0.9,3.9-1.1,6.2c-0.1,1.4,0,2.6,0.2,3.5c0.1,0.7,0.2,1.3,0.1,2
			c-0.2,0.2-0.5,0.6-0.7,0.9c-0.8,1-1.7,2.2-1.9,3.8c-0.1,1.3,0.6,2.4,1.8,3c-0.1,1.2-0.1,2.5-0.1,3.8c-0.1,2-0.1,4.3-0.4,6.3
			c-0.1,0.7-0.4,1.3-0.8,2.1c-0.6,1.1-1.3,2.4-1.5,4.3c-0.1,0.7,0,1.3,0.3,2v0.2c-0.4,3.1-1.1,9.4-2.4,11.7
			c-1.3,2.2-1.6,4.2-1.9,6.1c-0.1,0.5,0,0.9,0.2,2.8l0.1,1c-0.5,3.5-0.7,7.6-1,11.2c-0.3,3.9-0.5,8.3-1.1,11.8
			c-0.2,1.4-0.6,3-0.9,4.4c-0.3,1.4-0.7,2.9-0.9,4.3c-0.6,3.9-1.2,8.7-1.7,13.4c-0.6,5.4-1.2,11-2,15.1c-2,10.5-4.1,18.6-6.2,24.8
			c0.8,0.2,1.6,0.4,2.4,0.6c3.7,0.9,7.5,1.8,11.3,2.7l0,0h0.1c0,0,0,0,0.1,0c0.4,0.1,0.8,0.3,1.1,0.4c0.1,0,0.1,0.1,0.2,0.1
			c0.4,0.2,0.7,0.5,1,0.8c0,0,0,0.1,0.1,0.1c0.3,0.3,0.5,0.6,0.7,1c0,0.1,0.1,0.1,0.1,0.2c0.2,0.4,0.3,0.8,0.4,1.2c0,0,0,0,0,0.1
			v0.1c0,0.2,0.1,0.4,0.1,0.6s0,0.4-0.1,0.6v0.1c0,0.3-0.1,0.6-0.2,0.9l-4.7,15.1c34.7,9.8,99.7,24.8,173.3,24.8c1.9,0,3.9,0,5.9,0
			c79.4,0,144-14.6,178-24.2l-5-15.3c0-0.1,0-0.3-0.1-0.4c-0.1-0.2-0.1-0.5-0.1-0.7s0-0.5,0-0.7c0-0.1,0-0.3,0-0.4s0.1-0.2,0.1-0.3
			c0.1-0.2,0.1-0.4,0.2-0.7c0.1-0.2,0.2-0.4,0.3-0.6s0.2-0.4,0.4-0.5c0.2-0.2,0.3-0.4,0.5-0.5c0.1-0.1,0.1-0.2,0.2-0.2
			c0.1-0.1,0.2-0.1,0.3-0.1c0.2-0.2,0.5-0.3,0.8-0.4c0.2-0.1,0.4-0.2,0.6-0.2c0.1,0,0.2-0.1,0.3-0.1c2.3-0.5,4.5-1,6.6-1.5
			c1.3-0.3,2.5-0.6,3.7-0.9l-1.6-23.1c0.5-0.2,0.9-0.6,1.2-1.1c0.2-0.4,2.2-3.6,1.3-7.6c0.9-1.4,1.7-3.5,1.2-5.6
			c-0.2-0.8-0.6-1.9-1.6-3c1.3-1.4,2.4-3.4,2.7-5c0.5-2.7-0.7-5.1-3.2-6.4c-0.8-0.4-1.2-0.7-1.6-0.9c-0.1-0.4-0.3-0.9-0.5-1.5
			c-1-1.9-2.7-2.9-5-2.9c-0.8,0-1.6,0.1-2.6,0.2c-0.6,0.1-1.2,0.1-1.9,0.2c-0.1-0.1-0.2-0.2-0.4-0.4c-0.4-0.5-2.4-3-1.7-9.4
			c0.1-0.9,0.4-1.4,1.4-2.8s2.3-3.3,3.7-6.5c0.5-1.2,0.9-2.6,1.3-4.2c0.6-2.2,1.3-5,2.4-6c6.9-5.8,8.8-10.3,9.7-13.4
			c0.7-2.2-0.1-4-0.7-5.2c-0.1-0.2-0.3-0.7-0.3-0.8c0-0.7,0.9-2,1.6-2.9c0.7-1.1,1.5-2.1,1.9-3.4c0.1-0.2,0.2-0.5,0.4-0.9
			c0.9-1.8,2.3-4.4,3-12c0.4-4.6,2.9-9.2,5.4-13.5c0.8-1.3,0.9-2.7,1-3.7c0-0.3,0.1-0.8,0.1-0.9c0.4-0.8,0.9-1.5,1.4-2.2
			c0.8-1.1,1.6-2.2,1.9-3.6C508.2,187.7,506.6,185.6,505.5,184z M257.1,227.7c0-0.3,0.3-0.6,0.6-0.6h1.6c0.3,0,0.6,0.3,0.6,0.6v29.2
			h9.9c0.3,0,0.6,0.3,0.6,0.6v1.6c0,0.3-0.3,0.6-0.6,0.6h-12.1c-0.3,0-0.6-0.3-0.6-0.6V227.7z M228.4,227.7c0-0.3,0.3-0.6,0.6-0.6
			h1.6c0.3,0,0.6,0.3,0.6,0.6V259c0,0.3-0.3,0.6-0.6,0.6H229c-0.3,0-0.6-0.3-0.6-0.6V227.7z M187.5,256.7c0-0.2,0.1-0.4,0.2-0.5
			c0.2-0.1,0.3-0.1,0.5-0.1c2.4,0.8,4.7,1.2,6.7,1.2c1.5,0,2.6-0.4,3.5-1.2c0.8-0.8,1.3-2,1.3-3.6v-3c0-0.8-0.1-1.6-0.3-2.2
			c-0.2-0.6-0.5-1-0.8-1.3s-0.6-0.5-1.1-0.7s-0.9-0.3-1.2-0.4l-3.1-0.4c-0.6-0.1-1.2-0.3-2-0.6s-1.4-0.8-1.9-1.3s-0.9-1.2-1.3-2.2
			c-0.4-0.9-0.5-2-0.5-3.2v-3.1c0-2.4,0.7-4.3,2.1-5.6s3.2-1.9,5.4-1.9c1.9,0,4,0.3,6.2,0.9c0.3,0.1,0.4,0.3,0.4,0.6v1.7
			c0,0.2-0.1,0.4-0.2,0.5s-0.3,0.1-0.5,0.1c-4.4-1.2-7.5-1.4-9.4,0.3c-0.8,0.8-1.3,2-1.3,3.6v3c0,0.8,0.1,1.6,0.3,2.1
			c0.2,0.6,0.4,1,0.7,1.3c0.2,0.3,0.5,0.5,0.9,0.7s0.8,0.3,1.1,0.4l3.1,0.4c0.5,0.1,1.2,0.3,2,0.6s1.5,0.7,2.1,1.3
			c0.6,0.5,1,1.2,1.4,2.2c0.4,0.9,0.6,2,0.6,3.3v3.1c0,2.4-0.7,4.3-2.1,5.6s-3.2,1.9-5.4,1.9c-2.3,0-4.7-0.4-7.1-1.1
			c-0.2-0.1-0.4-0.3-0.4-0.6L187.5,256.7L187.5,256.7z M196.7,350.3c-8.7,0-13.6-1.1-18.9-2.6c-2-0.5-2.7-1.2-2.7-2.8v-12.3
			c0-2,6.8-2.2,8.9-2.2c1.6,0,3.3,0.9,3.3,2.4v5.4c2.9,0.6,5.5,1.1,8.4,1.1c6.5,0,10.4-1.6,10.4-5.1c0-10.3-30.2-1.7-30.2-23.1
			c0-16.1,13.9-17.4,22.6-17.4c7.2,0,11.2,0.7,18.1,2.3c1.5,0.4,2.1,1,2.1,2.7v11.9c0,1.6-1.8,2.5-3.4,2.5c-2.1,0-8.8-0.2-8.8-2.2
			v-5.4c-2.3-0.4-4.6-0.8-7.2-0.8c-6.6,0-8.8,2-8.8,4.8c0,10.3,30.2,1.7,30.2,23.1C220.6,348.2,208.9,350.3,196.7,350.3z
			 M285.7,348.9c-1.3,0.5-4.3,1.4-8.5,1.4c-6.3,0-12.2-2.6-12.2-12.5v-23.4c0-4-0.3-7.2-4.5-7.2c-3,0-8.5,1.9-12.3,3.5V338h4.4
			c2.1,0,2.3,1.5,2.3,3.2c0,1.6-0.2,8.1-2.2,8.1h-23.8c-2.1,0-2.4-1.5-2.4-3.2c0-1.6,0.2-8.1,2.2-8.1h4.8v-52.5c0-1-0.2-1.4-1.4-1.4
			h-2.4c-1.8,0-2.4-1.1-2.4-2.4c0-1.1,0.1-8.9,2.2-8.9h14c3.7,0,4.7,2.2,4.7,4.8v21.9c5.6-2.7,12.5-5.6,18.3-5.6
			c10.4,0,13.2,5.5,13.2,15.3v27c0,1.6,0.6,2.5,2.1,2.5s2.2-0.6,3.7-0.6c1.7,0,2,3.6,2,6.3C287.5,346.9,286.9,348.5,285.7,348.9z
			 M299.8,276.8c0-2.4,8.7-2.5,11.4-2.5c2.7,0,3.8,1,3.8,2.7v9.4c0,1.6-1.1,2.7-3.8,2.7c-2.7,0-11.4-0.1-11.4-2.5V276.8z
			 M295.6,227.7c0-0.3,0.3-0.6,0.6-0.6h1.6c0.3,0,0.6,0.3,0.6,0.6V259c0,0.3-0.3,0.6-0.6,0.6h-1.6c-0.3,0-0.6-0.3-0.6-0.6V227.7z
			 M319.4,349.3h-23.8c-2.1,0-2.4-1.5-2.4-3.2c0-1.6,0.2-8.1,2.2-8.1h4.8v-30.4c0-1-0.2-1.4-1.4-1.4h-2.4c-1.8,0-2.4-1.1-2.4-2.4
			c0-1.1,0.1-8.9,2.2-8.9h14c3.7,0,4.7,2.2,4.7,4.8V338h4.4c2.1,0,2.3,1.5,2.3,3.2C321.6,342.8,321.4,349.3,319.4,349.3z
			 M324.3,252.5v-18.4c0-2.4,0.7-4.3,2.1-5.6s3.2-1.9,5.4-1.9c2,0,4.1,0.4,6.2,1.1c0.2,0.1,0.4,0.3,0.4,0.6v1.7
			c0,0.2-0.1,0.4-0.3,0.5c-0.2,0.1-0.4,0.1-0.5,0.1c-4.1-1.5-7.4-1.7-9.3,0c-0.9,0.8-1.3,1.9-1.3,3.6v18.4c0,1.6,0.4,2.8,1.3,3.6
			c1.9,1.7,5.3,1.5,9.3,0c0.2-0.1,0.4,0,0.5,0.1c0.2,0.1,0.3,0.3,0.3,0.5v1.7c0,0.2-0.2,0.5-0.4,0.5c-2.1,0.8-4.2,1.1-6.2,1.1
			c-2.2,0-4-0.6-5.4-1.9C325,256.8,324.3,255,324.3,252.5z M375.9,311.8c0,2.5-2.4,3.2-5.5,3.2c-1.4,0-8.3-0.2-8.3-3v-2.7
			c0-1.3-0.8-3.1-3.4-3.1c-3,0-6.9,2.3-9.4,3.9V338h4.4c2.1,0,2.3,1.5,2.3,3.2c0,1.6-0.2,8.1-2.2,8.1H330c-2.1,0-2.4-1.5-2.4-3.2
			c0-1.6,0.2-8.1,2.2-8.1h4.8v-30.4c0-1-0.2-1.4-1.4-1.4h-2.4c-1.8,0-2.4-1.1-2.4-2.4c0-1.1,0.1-8.9,2.2-8.9h14
			c3.6,0,4.6,2.1,4.7,4.7c5.6-3.2,10.4-5.8,15.8-5.8c9.1,0,10.9,4.5,10.9,15.5v2.5H375.9z M378.6,252.5c0,2.4-0.7,4.3-2.1,5.6
			c-1.4,1.3-3.2,1.9-5.4,1.9c-2.2,0-4-0.6-5.4-1.9s-2.1-3.2-2.1-5.6v-18.4c0-2.4,0.7-4.3,2.1-5.6s3.2-1.9,5.4-1.9
			c2.2,0,4,0.6,5.4,1.9c1.4,1.3,2.1,3.2,2.1,5.6V252.5z M404.6,227.7c0-0.3,0.3-0.6,0.6-0.6h1.5c0.2,0,0.5,0.1,0.5,0.4l9.2,23.6
			v-23.4c0-0.3,0.3-0.6,0.6-0.6h1.6c0.3,0,0.6,0.3,0.6,0.6V259c0,0.3-0.3,0.6-0.6,0.6h-1.4c-0.2,0-0.5-0.1-0.5-0.4l-9.2-23.6V259
			c0,0.3-0.3,0.6-0.6,0.6h-1.6c-0.3,0-0.6-0.3-0.6-0.6v-31.3H404.6z M430,347.4c-6.4,1.8-13.1,2.9-21.8,2.9
			c-17.4,0-25.3-5.4-25.3-22v-14.2c0-16.8,7.6-20.3,25-20.3c13.3,0,22.6,2.3,22.6,15.5v6.9c0,10.5-6.1,14-32.9,14v1.5
			c0,4.1,2.9,6.8,12.1,6.8c7,0,13.7-1,18.1-2.1c0.3-0.1,0.5-0.1,0.8-0.1c1.4,0,2.9,3.4,2.9,7.5C431.5,345.7,431.1,347.1,430,347.4z"
			/>
		<path class="st1" d="M371.1,229.4c-1.5,0-2.6,0.4-3.5,1.2s-1.3,2-1.3,3.6v18.4c0,1.6,0.4,2.8,1.3,3.6s2,1.2,3.5,1.2
			c1.4,0,2.6-0.4,3.5-1.2c0.9-0.8,1.3-2,1.3-3.6v-18.4c0-1.6-0.4-2.8-1.3-3.6C373.7,229.8,372.6,229.4,371.1,229.4z"/>
		<path class="st1" d="M491.6,435.1c-15.9,4.4-40.3,10.6-69.4,15.8c26.9-0.7,50.2-1.7,69.3-3c1.6-0.1,2.9-1.6,2.8-3.2l-0.7-10.2
			C492.9,434.7,492.3,434.9,491.6,435.1z"/>
		<path class="st1" d="M98.1,432c1.9,7.7,5.6,12.9,10.8,15.2c0.3,0.2,0.7,0.2,1.1,0.2c2.7,0.1,25.6,0.9,59.8,1.8
			c-30.1-5.8-54.9-12.3-70.9-17C98.6,432.2,98.3,432.1,98.1,432z"/>
	</g>
	<path class="st1" d="M79.9,401.2v-0.1L93,359h0.1c0.3-1.1,1-2,2-2.6l16.2-9.7l3.7-2.2c-1.7-0.4-3.3-0.8-4.9-1.2
		c-1-0.2-1.9-0.5-2.9-0.7c-24-6.1-38.3-11.2-38.3-11.2l9.5,44.4L50,392.1C50,392,61,395.9,79.9,401.2z"/>
	<path class="st1" d="M504.2,356.9c1,0.6,1.6,1.5,2,2.5h0.1l13.6,41.7l0.1,0.2c19.1-5.3,30.1-9.3,30.1-9.3l-28.2-16.5l8.6-43.6
		c0,0-15.8,5.8-42.9,12.3c-1,0.2-1.9,0.5-3,0.7h-0.1l2.6,1.6L504.2,356.9z"/>
	<path class="st1" d="M104.3,357.5l1.6,0.5l3,0.9l5,1.6l2.8,0.9l0,0l2.7-8.8l1-3.3l1-3.3l-3.9,2.3l-14.8,8.8L104.3,357.5z"/>
	<path class="st1" d="M480.1,353.3l2.8,8.7h0.1l0,0l1.4-0.5l1.3-0.4l4.7-1.5l3-0.9l3-0.9l-14.6-8.8l-3.9-2.4l1.1,3.4L480.1,353.3z"
		/>
	<path class="st1" d="M273,416.5l-2-0.1l-0.4,9.5l2.3,0.1c1.8,0,2.6-0.7,2.6-2.5l0.2-4.3c0-0.9-0.2-1.5-0.6-2
		C274.7,416.8,274,416.5,273,416.5z"/>
	<path class="st1" d="M380.2,414.4c-0.1-0.9-0.4-1.5-0.9-1.9s-1.2-0.5-2-0.4l-2.3,0.3l2.2,17.4l2.3-0.3c0.8-0.1,1.4-0.4,1.8-0.9
		c0.4-0.4,0.5-1.1,0.4-2L380.2,414.4z"/>
	<path class="st1" d="M516.1,404.8l-0.7-2.2l-12.1-37.2l-0.7-2.2l-0.7-2.2l-3,0.9l-3,0.9l-8.6,2.7l-1.3,0.4l-1.5,0.5l0,0
		c-0.7,0.2-1.5,0.4-2.3,0.7c-0.7,0.2-1.5,0.4-2.2,0.6c-32.5,9.2-98.5,24.4-179.5,24.4c-2,0-3.9,0-5.9,0c-75,0-141.5-15.6-174.7-25
		c-0.8-0.2-1.5-0.4-2.2-0.6c-0.8-0.2-1.5-0.4-2.2-0.6l0,0l-2.8-0.9l-9-2.8l-0.6-0.2l-2.3-0.7l-3-0.9l-0.7,2.2l-0.7,2.2l-11.7,37.7
		l-0.7,2.2l-0.7,2.2L78.9,421c0,0,6.7,2.4,18.7,6c0.9,0.3,1.9,0.6,2.9,0.8c18,5.3,46.2,12.7,80.5,18.8c1,0.2,2,0.3,2.9,0.5
		c34.3,6,74.6,10.7,116.8,10.7c38.5,0,75.2-3.9,107.4-9.1c1-0.2,2-0.3,2.9-0.5c32.5-5.4,60.1-12.2,79.5-17.6c1-0.3,1.9-0.5,2.9-0.8
		c17.9-5.1,28.2-8.8,28.2-8.8l-4.6-14L516.1,404.8z M112.5,398l-0.3,1.1c-0.2,0.6-0.8,1-1.5,0.8l-5.1-1.5l-2,6.7l6,1.8
		c0.3,0.1,0.5,0.3,0.7,0.6c0.1,0.3,0.2,0.6,0.1,0.9l-0.3,1.1c-0.2,0.5-0.6,0.8-1.1,0.8c-0.1,0-0.2,0-0.3,0l-8.2-2.4
		c-0.3-0.1-0.5-0.3-0.7-0.6c-0.1-0.3-0.2-0.6-0.1-0.9l6.3-21.1c0.2-0.6,0.8-1,1.5-0.8l8.2,2.4c0.3,0.1,0.5,0.3,0.7,0.6
		c0.1,0.3,0.2,0.6,0.1,0.9l-0.3,1.1c-0.2,0.6-0.8,1-1.5,0.8l-6-1.8l-2,6.7l5.1,1.5c0.3,0.1,0.5,0.3,0.7,0.6
		C112.6,397.4,112.6,397.7,112.5,398z M123.5,413c-0.8,0.4-1.7,0.7-2.6,0.7c-0.6,0-1.2-0.1-1.9-0.3c-1.7-0.5-2.9-1.3-3.7-2.6
		c-0.8-1.3-0.9-2.9-0.4-4.8l4.5-16.9c0.1-0.3,0.3-0.6,0.5-0.7c0.3-0.2,0.6-0.2,0.9-0.1l1.1,0.3c0.6,0.2,1,0.8,0.8,1.4l-4.5,16.9
		c-0.2,0.9-0.2,1.6,0.1,2.1s0.8,0.9,1.6,1.1s1.4,0.2,1.9-0.1c0.5-0.3,0.9-0.9,1.1-1.8l4.5-16.9c0.2-0.6,0.8-1,1.4-0.8l1.1,0.3
		c0.3,0.1,0.6,0.3,0.7,0.5c0.2,0.3,0.2,0.6,0.1,0.9l-4.5,16.9C125.7,410.9,124.8,412.3,123.5,413z M144.5,398c-0.3,0.1-0.7,0.1-1,0
		c-1.4-0.8-2.6-1.3-3.7-1.5c-0.8-0.2-1.5-0.2-2.1,0.2c-0.5,0.3-0.9,0.9-1.1,1.8l-3.1,12.6c-0.2,0.9-0.2,1.6,0.2,2.1
		c0.4,0.5,0.9,0.9,1.8,1.1c0.8,0.2,1.6,0.3,2.6,0.3l1.7-6.9L137,407c-0.6-0.2-1-0.8-0.9-1.4l0.3-1.1c0.1-0.3,0.3-0.6,0.5-0.7
		c0.3-0.2,0.6-0.2,0.9-0.1l4.9,1.2c0.6,0.2,1,0.8,0.9,1.4l-2.6,10.8c-0.1,0.5-0.6,0.9-1.1,0.9c-0.4,0-0.8,0-1.3,0
		c-1.4,0-2.7-0.2-4-0.5c-1.7-0.4-2.9-1.3-3.8-2.5c-0.9-1.3-1.1-2.9-0.6-4.8l3.1-12.6c0.5-1.9,1.4-3.2,2.8-4c1.3-0.7,2.9-0.9,4.5-0.5
		c1.4,0.3,2.8,0.9,4.3,1.7c0.5,0.3,0.7,0.8,0.6,1.3l-0.3,1.1C145,397.6,144.8,397.9,144.5,398z M156.3,407.8c0.6,0.1,1,0.8,0.9,1.4
		l-0.2,1.1c-0.1,0.3-0.3,0.6-0.5,0.7c-0.3,0.2-0.6,0.2-0.9,0.2l-5.2-1.2l-1.5,6.9l6.1,1.4c0.3,0.1,0.6,0.3,0.7,0.5
		c0.2,0.3,0.2,0.6,0.2,0.9l-0.2,1.1c-0.1,0.5-0.6,0.9-1.1,0.9c-0.1,0-0.2,0-0.3,0l-8.3-1.9c-0.3-0.1-0.6-0.3-0.7-0.5
		c-0.2-0.3-0.2-0.6-0.2-0.9l4.8-21.5c0.1-0.3,0.3-0.6,0.5-0.7c0.3-0.2,0.6-0.2,0.9-0.2l8.3,1.9c0.3,0.1,0.6,0.3,0.7,0.5
		c0.2,0.3,0.2,0.6,0.2,0.9l-0.2,1.1c-0.1,0.6-0.8,1-1.4,0.9l-6.1-1.4l-1.5,6.9L156.3,407.8z M169.5,424.7c-0.1,0-0.2,0-0.2,0l-1-0.2
		c-0.5-0.1-0.8-0.5-0.9-0.9L165,410l-2.5,12.2c-0.1,0.3-0.2,0.6-0.5,0.7c-0.3,0.2-0.6,0.2-0.9,0.2l-1.1-0.2c-0.6-0.1-1-0.7-0.9-1.4
		l4.4-21.6c0.1-0.3,0.2-0.6,0.5-0.7c0.3-0.2,0.6-0.2,0.9-0.2l1,0.2c0.5,0.1,0.8,0.5,0.9,0.9l2.4,13.6l2.5-12.2
		c0.1-0.6,0.7-1,1.4-0.9l1.1,0.2c0.3,0.1,0.6,0.2,0.7,0.5c0.2,0.3,0.2,0.6,0.2,0.9l-4.4,21.6C170.5,424.3,170,424.7,169.5,424.7z
		 M189.3,405.9c-0.1,0.6-0.7,1.1-1.4,0.9l-6.2-1.1l-1.3,6.9l5.2,1c0.6,0.1,1.1,0.7,0.9,1.4l-0.2,1.1c-0.1,0.3-0.2,0.6-0.5,0.8
		c-0.3,0.2-0.6,0.2-0.9,0.2l-5.2-1l-1.3,6.9l6.1,1.1c0.3,0.1,0.6,0.2,0.8,0.5c0.2,0.3,0.2,0.6,0.2,0.9l-0.2,1.1
		c-0.1,0.6-0.6,1-1.1,1c-0.1,0-0.1,0-0.2,0l-8.4-1.5c-0.3-0.1-0.6-0.2-0.8-0.5c-0.2-0.3-0.2-0.6-0.2-0.9l3.9-21.7
		c0.1-0.6,0.7-1.1,1.4-0.9l8.4,1.5c0.3,0.1,0.6,0.2,0.8,0.5c0.2,0.3,0.2,0.6,0.2,0.9L189.3,405.9z M219,421.1
		c-0.1,0.6-0.7,1.1-1.3,1l-1.9-0.3l-0.7,4.7c-0.3,1.9-1,3.3-2.2,4.2c-0.9,0.7-2,1-3.3,1c-0.4,0-0.7,0-1.1-0.1
		c-1.7-0.2-3.1-1-4.1-2.1c-1-1.2-1.4-2.8-1.2-4.7l0.3-2.1c0.3-2.1,1.2-3.3,2.2-4c-0.8-0.9-1.3-2.4-1-4.5l0.3-2.1
		c0.3-1.9,1-3.3,2.3-4.2c1.2-0.9,2.7-1.2,4.4-0.9c1.5,0.2,3,0.7,4.4,1.5c0.4,0.2,0.7,0.7,0.6,1.2l-0.2,1.2c-0.1,0.4-0.3,0.7-0.6,0.9
		c-0.3,0.2-0.8,0.2-1.1,0c-1.3-0.7-2.5-1.2-3.6-1.3c-0.8-0.1-1.5,0-2,0.4c-0.5,0.3-0.8,0.9-0.9,1.8l-0.3,2.1c-0.1,0.9,0,1.6,0.3,2
		c0.4,0.5,1.1,0.8,2.1,0.9l7.6,1.1c0.3,0,0.6,0.2,0.8,0.5c0.2,0.2,0.3,0.6,0.2,0.9L219,421.1z M248.3,414c0,0.4-0.2,0.7-0.5,0.9
		c-0.3,0.2-0.7,0.2-1,0.1c-1.5-0.6-2.8-0.9-3.9-1c-0.8-0.1-1.5,0.1-2,0.4s-0.7,1-0.8,1.9l-0.2,2.1c0,0.5,0,0.9,0.1,1.3
		s0.2,0.6,0.3,0.7c0.1,0.1,0.2,0.2,0.4,0.3c0.3,0.2,0.5,0.2,0.5,0.2l2.2,0.5c0.4,0.1,1,0.3,1.6,0.6c0.6,0.3,1.2,0.7,1.6,1.2
		s0.8,1.1,1,1.9s0.3,1.7,0.2,2.6l-0.2,2.1c-0.2,1.9-0.9,3.4-2.2,4.3c-1,0.8-2.3,1.2-3.7,1.2c-0.2,0-0.5,0-0.8,0
		c-1.7-0.2-3.4-0.6-5.1-1.3c-0.5-0.2-0.8-0.7-0.7-1.2l0.1-1.2c0-0.4,0.2-0.7,0.6-0.9c0.3-0.2,0.7-0.2,1.1-0.1c1.6,0.7,3,1.1,4.4,1.2
		c0.8,0.1,1.5-0.1,2-0.5s0.8-1,0.8-1.9l0.2-2.1c0-0.5,0-0.9-0.1-1.3s-0.2-0.6-0.3-0.7c-0.1-0.1-0.3-0.3-0.5-0.4
		c-0.4-0.2-0.6-0.3-0.6-0.3l-2.2-0.5c-0.5-0.1-1-0.3-1.5-0.6c-0.6-0.3-1.1-0.7-1.5-1.2s-0.7-1.1-0.9-1.9c-0.2-0.8-0.3-1.6-0.2-2.6
		l0.2-2.1c0.2-1.9,0.9-3.4,2.2-4.3c1.2-0.9,2.7-1.3,4.4-1.1c1.4,0.1,2.9,0.5,4.5,1.1c0.5,0.2,0.8,0.7,0.8,1.2L248.3,414z M264,418.6
		l-0.3,4.3c-0.1,1-0.3,1.8-0.6,2.5c-0.4,0.7-0.8,1.3-1.3,1.7c-0.5,0.4-1,0.7-1.7,0.9c-0.6,0.2-1.1,0.3-1.7,0.4c-0.5,0-1,0-1.5,0
		l-2-0.1l-0.5,6.8c0,0.3-0.2,0.6-0.4,0.8c-0.2,0.2-0.5,0.3-0.8,0.3h-0.1l-1.1-0.1c-0.6,0-1.1-0.6-1.1-1.2l1.6-22
		c0-0.3,0.2-0.6,0.4-0.8c0.2-0.2,0.5-0.3,0.8-0.3l4.3,0.3c1.8,0.1,3.2,0.7,4.3,1.8C263.7,415.1,264.2,416.7,264,418.6z M279.2,419.4
		l-0.2,4.3c-0.1,2.9-1.5,4.4-3,5.1l3,7.3c0.2,0.4,0.1,0.8-0.1,1.1c-0.2,0.3-0.6,0.5-1,0.5c0,0,0,0-0.1,0l-1.2-0.1
		c-0.5,0-0.9-0.3-1-0.7l-3.1-7.5c-0.1,0-0.1,0-0.2,0l-2-0.1l-0.3,6.8c0,0.3-0.2,0.6-0.4,0.8c-0.2,0.2-0.5,0.3-0.8,0.3l-1.1-0.1
		c-0.6,0-1.1-0.6-1.1-1.2l1-22c0-0.3,0.2-0.6,0.4-0.8c0.2-0.2,0.5-0.3,0.8-0.3l4.3,0.2c1.8,0.1,3.3,0.7,4.4,1.7
		C278.8,415.9,279.3,417.4,279.2,419.4z M286.4,436.8c0,0.6-0.5,1.1-1.2,1.1l0,0h-1.1c-0.3,0-0.6-0.1-0.8-0.4
		c-0.2-0.2-0.3-0.5-0.3-0.8l0.6-22.1c0-0.6,0.6-1.1,1.2-1.1h1.1c0.3,0,0.6,0.1,0.8,0.4c0.2,0.2,0.3,0.5,0.3,0.8L286.4,436.8z
		 M302.3,437c0,0.6-0.5,1.2-1.2,1.2l0,0h-1c-0.5,0-0.9-0.3-1.1-0.7l-5-12.9l-0.1,12.5c0,0.3-0.1,0.6-0.3,0.8
		c-0.2,0.2-0.6,0.4-0.8,0.3h-1.1c-0.6,0-1.2-0.5-1.2-1.2l0.2-22.1c0-0.3,0.1-0.6,0.3-0.8c0.2-0.2,0.5-0.3,0.8-0.3h1
		c0.5,0,0.9,0.3,1.1,0.8l4.9,12.9l0.1-12.5c0-0.3,0.1-0.6,0.3-0.8c0.2-0.2,0.5-0.3,0.8-0.3h1.1c0.6,0,1.2,0.5,1.2,1.2L302.3,437z
		 M318,437.3c-1.8,0.6-3.5,0.9-5.2,0.9h-0.2c-1.6,0-3-0.5-4.1-1.4c-1.2-1-1.8-2.5-1.8-4.5l-0.3-12.9c0-1.9,0.5-3.5,1.7-4.5
		c1.1-1,2.5-1.6,4.3-1.6h0.3c1.3,0,2.7,0.2,4.2,0.5c0.5,0.1,0.9,0.6,0.9,1.1v1.2c0,0.4-0.2,0.7-0.4,0.9c-0.3,0.2-0.7,0.3-1,0.2
		c-1.5-0.4-2.7-0.5-3.8-0.5c-1,0-1.7,0.2-2.1,0.7c-0.4,0.4-0.6,1.1-0.6,2l0.3,12.9c0,0.9,0.2,1.6,0.7,2s1.1,0.6,1.9,0.6
		c0.9,0,1.8-0.1,2.7-0.3l-0.2-7.1l-2.8,0.1c-0.7,0-1.2-0.5-1.2-1.1v-1.1c0-0.3,0.1-0.6,0.3-0.8c0.2-0.2,0.5-0.4,0.8-0.4l5.1-0.1
		c0.3,0,0.6,0.1,0.8,0.3c0.2,0.2,0.4,0.5,0.4,0.8l0.2,11.1C318.8,436.7,318.5,437.2,318,437.3z M332.5,415.9
		c-0.2,0.2-0.5,0.4-0.8,0.4l-6.2,0.3l0.3,7l5.3-0.2c0.3,0,0.6,0.1,0.8,0.3c0.2,0.2,0.4,0.5,0.4,0.8l0.1,1.1c0,0.6-0.5,1.2-1.1,1.2
		L326,427l0.4,9.3c0,0.3-0.1,0.6-0.3,0.8c-0.2,0.2-0.5,0.4-0.8,0.4l-1.1,0.1c0,0,0,0-0.1,0c-0.6,0-1.1-0.5-1.2-1.1l-1-22
		c0-0.3,0.1-0.6,0.3-0.8c0.2-0.2,0.5-0.4,0.8-0.4l8.5-0.4c0.7,0,1.2,0.5,1.2,1.1l0.1,1.1C332.9,415.4,332.7,415.7,332.5,415.9z
		 M339.9,436.8l-1.1,0.1h-0.1c-0.3,0-0.6-0.1-0.8-0.3c-0.2-0.2-0.4-0.5-0.4-0.8l-1.4-22c0-0.6,0.4-1.2,1.1-1.2l1.1-0.1
		c0.3,0,0.6,0.1,0.8,0.3c0.2,0.2,0.4,0.5,0.4,0.8l1.4,22C341,436.2,340.5,436.8,339.9,436.8z M354.9,435.7l-8.5,0.7h-0.1
		c-0.6,0-1.1-0.5-1.2-1.1l-1.8-22c0-0.3,0.1-0.6,0.3-0.9c0.2-0.2,0.5-0.4,0.8-0.4l8.5-0.7c0.3,0,0.6,0.1,0.9,0.3
		c0.2,0.2,0.4,0.5,0.4,0.8l0.1,1.1c0.1,0.6-0.4,1.2-1.1,1.3l-6.2,0.5l0.6,7l5.3-0.4c0.3,0,0.6,0.1,0.9,0.3c0.2,0.2,0.4,0.5,0.4,0.8
		l0.1,1.1c0.1,0.6-0.4,1.2-1.1,1.3l-5.3,0.4l0.6,7l6.2-0.5c0.3,0,0.6,0.1,0.9,0.3c0.2,0.2,0.4,0.5,0.4,0.8l0.1,1.1
		C356,435,355.5,435.6,354.9,435.7z M369.3,434.2l-8.5,0.9h-0.1c-0.6,0-1.1-0.4-1.2-1l-2.3-22c0-0.3,0.1-0.6,0.3-0.9
		c0.2-0.2,0.5-0.4,0.8-0.4l1.1-0.1c0.6-0.1,1.2,0.4,1.3,1l2,19.7l6.2-0.6c0.3,0,0.6,0.1,0.9,0.3c0.2,0.2,0.4,0.5,0.4,0.8l0.1,1.1
		C370.4,433.6,370,434.2,369.3,434.2z M384,430.9c-1,1.2-2.3,1.9-4.1,2.1l-4.5,0.6c-0.1,0-0.1,0-0.1,0c-0.6,0-1.1-0.4-1.2-1
		l-2.8-21.9c0-0.3,0-0.6,0.2-0.9c0.2-0.2,0.5-0.4,0.8-0.4l4.5-0.6c1.7-0.2,3.2,0.1,4.4,1c1.3,0.9,2,2.3,2.3,4.2l1.5,12.3
		C385.4,428.1,385,429.7,384,430.9z M393.7,434.3c-0.1,0.5-0.5,0.9-1,0.9l-1.2,0.2c-0.1,0-0.1,0-0.2,0c-0.3,0-0.6-0.1-0.9-0.4
		c-0.3-0.3-0.4-0.7-0.3-1c0.2-0.9,0.3-1.8,0.3-2.7c-0.3-0.2-0.6-0.5-0.6-0.9l-0.4-2.9c-0.1-0.6,0.4-1.2,1-1.3l1.7-0.2
		c0.3,0,0.6,0,0.9,0.2c0.2,0.2,0.4,0.5,0.5,0.8l0.4,2.7C394,431.1,394,432.6,393.7,434.3z M421.9,425.2c-0.9,1.2-2.2,2-3.9,2.3
		c-0.5,0.1-0.9,0.1-1.3,0.1c-1.2,0-2.2-0.3-3.2-0.9c-1.3-0.8-2.2-2.2-2.5-4.1l-2.3-12.7c-0.3-1.9,0-3.5,0.9-4.7c0.9-1.2,2.3-2,4-2.3
		c1.7-0.3,3.2,0,4.5,0.8c1.3,0.8,2.2,2.2,2.5,4.1l2.3,12.7C423.2,422.4,422.9,424,421.9,425.2z M440,422.4c-0.1,0.4-0.5,0.6-0.9,0.7
		l-1.2,0.2c-0.5,0.1-0.9-0.1-1.2-0.5l-4.8-6.5c-0.1,0-0.1,0-0.2,0l-2,0.4l1.3,6.7c0.1,0.3,0,0.6-0.2,0.9s-0.4,0.4-0.7,0.5L429,425
		c-0.1,0-0.2,0-0.2,0c-0.5,0-1-0.4-1.1-0.9l-4.3-21.6c-0.1-0.6,0.3-1.2,0.9-1.4l4.2-0.8c1.7-0.3,3.3-0.1,4.7,0.6
		c1.4,0.8,2.3,2.2,2.7,4.1l0.8,4.2c0.6,2.9-0.4,4.6-1.6,5.7l4.7,6.4C440.1,421.6,440.2,422,440,422.4z M453.5,420l-8.3,1.8
		c-0.1,0-0.2,0-0.3,0c-0.5,0-1-0.4-1.1-0.9l-4.8-21.5c-0.1-0.3,0-0.6,0.2-0.9s0.4-0.4,0.7-0.5l8.3-1.8c0.7-0.1,1.3,0.3,1.4,0.9
		l0.2,1.1c0.1,0.6-0.3,1.3-0.9,1.4l-6.1,1.4l1.5,6.9l5.2-1.2c0.3-0.1,0.6,0,0.9,0.2s0.4,0.4,0.5,0.7l0.2,1.1c0.1,0.3,0,0.6-0.2,0.9
		s-0.4,0.4-0.7,0.5l-5.2,1.2l1.5,6.9l6.1-1.4c0.3-0.1,0.6,0,0.9,0.2c0.3,0.2,0.4,0.4,0.5,0.7l0.2,1.1
		C454.5,419.2,454.2,419.8,453.5,420z M468.7,415.8c-1.6,1-3.2,1.6-4.8,2c-0.6,0.1-1.2,0.2-1.7,0.2c-1,0-1.9-0.2-2.8-0.7
		c-1.4-0.7-2.3-2.1-2.8-4l-3.1-12.6c-0.5-1.9-0.2-3.5,0.6-4.8c0.9-1.3,2.1-2.1,3.8-2.5c1.2-0.3,2.6-0.5,4.1-0.5h0.4
		c0.5,0,1,0.4,1.1,0.9l0.3,1.1c0.1,0.4,0,0.7-0.2,1s-0.6,0.5-0.9,0.4h-0.6c-1.3,0-2.5,0.1-3.4,0.3c-0.8,0.2-1.4,0.6-1.8,1.1
		c-0.3,0.5-0.4,1.2-0.2,2.1l3.1,12.6c0.2,0.9,0.6,1.5,1.1,1.8c0.6,0.3,1.2,0.4,2.1,0.2c0.8-0.2,1.6-0.5,2.4-0.9l-1.7-6.9l-2.8,0.7
		c-0.6,0.2-1.3-0.2-1.4-0.9l-0.3-1.1c-0.1-0.3,0-0.6,0.1-0.9c0.2-0.3,0.4-0.5,0.7-0.5l5-1.2c0.3-0.1,0.6,0,0.9,0.1
		c0.3,0.2,0.5,0.4,0.5,0.7l2.6,10.8C469.4,415,469.1,415.5,468.7,415.8z M483.4,411.2c-0.8,1.3-2.1,2.2-3.7,2.6
		c-0.6,0.2-1.3,0.3-1.9,0.3c-0.9,0-1.8-0.2-2.7-0.6c-1.4-0.7-2.4-2-2.9-3.9l-3.3-12.5c-0.5-1.9-0.3-3.5,0.5-4.8
		c0.8-1.3,2.1-2.2,3.7-2.6c1.7-0.4,3.2-0.3,4.5,0.4c1.4,0.7,2.3,2,2.8,3.9l3.3,12.5C484.4,408.3,484.2,409.9,483.4,411.2z
		 M499.7,407.8l-1,0.3c-0.5,0.1-1,0-1.3-0.4l-8.5-10.9l3.6,11.9c0.2,0.6-0.2,1.3-0.8,1.5l-1,0.3c-0.1,0-0.2,0-0.3,0
		c-0.2,0-0.4,0-0.6-0.1c-0.3-0.1-0.5-0.4-0.6-0.7l-6.3-21.1c-0.2-0.6,0.2-1.3,0.8-1.5l1-0.3c0.5-0.1,1,0,1.3,0.4l8.5,10.9l-3.6-11.9
		c-0.2-0.6,0.2-1.3,0.8-1.5l1.1-0.3c0.3-0.1,0.6-0.1,0.9,0.1c0.3,0.1,0.5,0.4,0.6,0.7l6.3,21.1C500.6,406.9,500.3,407.6,499.7,407.8
		z"/>
	<path class="st1" d="M258,415.6l-2-0.1l-0.7,9.5l2,0.1c2,0.1,2.9-0.5,3-2.4l0.3-4.3c0.1-0.9-0.1-1.6-0.5-2
		C259.6,415.9,258.9,415.6,258,415.6z"/>
	<path class="st1" d="M417.2,408.3c-0.2-0.9-0.5-1.5-1-1.8c-0.4-0.2-0.8-0.4-1.3-0.4c-0.2,0-0.5,0-0.7,0.1c-0.8,0.1-1.4,0.5-1.8,1
		s-0.5,1.1-0.3,2l2.3,12.7c0.2,0.9,0.5,1.5,1,1.8s1.2,0.4,2,0.3s1.4-0.5,1.8-1c0.4-0.5,0.5-1.2,0.3-2.1L417.2,408.3z"/>
	<path class="st1" d="M209.3,421c-1.4,0-2.1,0.6-2.3,2.2l-0.3,2.1c-0.1,0.9,0,1.5,0.4,2c0.5,0.5,1.1,0.8,2,0.9
		c1.2,0.2,2.3,0.2,2.7-2.2l0.7-4.6l-2.3-0.3C209.8,421,209.6,421,209.3,421z"/>
	<path class="st1" d="M432.6,405.7c-0.2-0.9-0.5-1.5-1.1-1.8s-1.4-0.4-2.2-0.2l-2,0.4l1.9,9.3l2-0.4c2.3-0.5,2.6-1.6,2.3-3.1
		L432.6,405.7z"/>
	<path class="st1" d="M477.2,394.8c-0.2-0.9-0.6-1.5-1.1-1.7c-0.3-0.2-0.7-0.3-1.1-0.3c-0.3,0-0.6,0-0.9,0.1
		c-0.8,0.2-1.4,0.6-1.7,1.1s-0.4,1.2-0.1,2.1l3.3,12.5c0.2,0.9,0.6,1.5,1.1,1.7c0.6,0.3,1.2,0.3,2.1,0.1c0.8-0.2,1.4-0.6,1.7-1.1
		s0.4-1.2,0.1-2.1L477.2,394.8z"/>
</g>
</svg>
