<?xml version="1.0" encoding="utf-8"?>
<!-- Generator: Adobe Illustrator 22.1.0, SVG Export Plug-In . SVG Version: 6.00 Build 0)  -->
<!DOCTYPE svg PUBLIC "-//W3C//DTD SVG 1.1//EN" "http://www.w3.org/Graphics/SVG/1.1/DTD/svg11.dtd">
<svg version="1.1" id="Layer_1" xmlns="http://www.w3.org/2000/svg" xmlns:xlink="http://www.w3.org/1999/xlink" x="0px" y="0px"
	 viewBox="0 0 600 600" style="enable-background:new 0 0 600 600;" xml:space="preserve">
<style type="text/css">
	.st0{fill:#414042;}
	.st1{fill:#FFFFFF;}
</style>
<path class="st0" d="M546.3,382.8l-22.8-13.3l7.3-37c0.5-2.7-0.4-5.4-2.5-7.2c-1.4-1.2-3.1-1.8-4.9-1.8c-0.9,0-1.7,0.2-2.6,0.5
	c-0.1,0-11.9,4.3-32.2,9.6l-1-14.8c0.7-1.3,2.6-4.9,2.4-9.7c1.1-2.8,1.4-5.6,0.8-8.3c-0.1-0.3-0.1-0.6-0.2-0.9
	c0.6-1.3,1.1-2.7,1.3-4c1-5.5-1.4-10.7-6.1-13.7c-2.1-3.9-5.8-6.2-10.3-6.5l0,0c1.1-1.5,2.7-3.8,4.3-7.6c0.7-1.5,1.2-3.3,1.7-5.3
	c0.2-0.6,0.5-1.8,0.7-2.6c7.7-6.7,9.9-12.4,10.9-15.9c0.9-2.8,0.6-5.3,0.1-7.3c0.8-1.1,1.6-2.5,2.2-4.1c1.4-2.7,3-6.3,3.7-14.4
	c0.3-3,2.4-6.8,4.3-10.1c1.3-2.2,1.6-4.3,1.8-5.7c0.1-0.1,0.1-0.2,0.2-0.3c1-1.4,2.6-3.5,3.1-6.6c1.2-6.4-1.9-10.7-3.4-12.5
	l-0.3-0.9c-0.6-1.7-1.8-5-4.8-7.7c-2.1-1.9-4.4-2.8-6.2-3.2c-0.6-0.6-1.4-1.2-2.4-1.7c-0.6-0.3-1.3-0.6-1.9-0.8
	c-0.2-0.2-0.3-0.4-0.5-0.5c-0.6-0.6-1.2-1.1-1.7-1.5c-0.8-1.8-1.4-3.3-1.4-3.4c-1.6-3.9-5.4-6.5-10-6.5l-99.3,3
	c-2.9,0.1-5.7,1.4-7.6,3.6c-0.3,0.3-0.7,0.7-1.1,1c-1.1-0.2-2.3-0.4-4-0.4c-3.6,0-6,0.9-7.9,1.6c-0.4,0.1-1,0.2-1.6,0.2
	c-0.4,0.1-0.8,0.1-1.2,0.2c-1.1-0.4-2.6-0.8-4.3-0.8c-2.1,0-4.2,0.6-6,1.7c-1.9,1.1-3.1,2.4-4,3.5c-0.3,0-0.8,0.1-1.4,0.1
	c-2.7,0.1-5.3,1-9.3,2.4c-1.5,0.5-3.2,1.1-4.9,1.6c-4.8,1.5-7.5,3.3-9.4,4.6c-1,0.7-1.1,0.7-1.3,0.8c0,0-3,0.8-3.4,0.9
	c-2.6-2.1-5.8-3.1-9.6-3.1h-1.2c-4.4,0.2-7.3,2.3-8.9,3.7c-0.5,0.2-1,0.4-1.6,0.6c-1.5,0.5-3.5,1.2-5.5,2.4c-0.2,0.1-1,0.2-2.1,0.2
	c-0.7,0-1.5,0-2.6-0.1l-0.5-0.2c-2.7-1.2-7.1-3.1-12.1-3.9l-2.9-0.4c-3-0.5-5.2-0.8-10.1-0.9c0,0-0.7,0-0.8,0
	c-6.6,0-12.6,1.3-17.9,3.7c-1.4,0.7-3,1.5-4.7,2.3c-3.1,1.6-9.5,4.8-11.7,4.9c-1.9,0-5.1-1.5-7.6-2.6c-0.9-0.4-1.8-0.7-2.8-1.1
	c0-0.4,0-0.8,0-1.3c-0.1-2.6-1-4.5-1.7-5.9c0-0.3,0.1-0.7,0.1-1c0.2-2.6,0.3-5.5-0.6-8.5c-2.7-8.2-7-14.3-12.3-17.5
	c-0.4-0.2-0.8-0.6-1.2-1c-2.3-2-5.5-4.7-10-5.3c-0.6-0.1-1.3-0.1-1.9-0.1c-1.8,0-3.5,0.3-5,0.8c-2.2-3.9-5.7-6-9.1-6.6
	c-0.9-0.2-1.7-0.2-2.5-0.2c-3.3,0-5.8,1.2-7.6,2.4c-1.1,0.2-2.4,0.5-3.7,1c-1.4,0.6-1.4,0.6-2.8,0.7l-1.1,0.1
	c-1.2,0.1-2.3,0.3-3.3,0.6c-1-0.3-2.2-0.5-3.4-0.5c-3.2,0-6.3,1.4-8.5,3.8c-3.8,4.3-3.1,9.5-2.3,14.7c0.1,0.3,0.2,0.9,0.3,1.6
	c-1.7,2.3-2.2,4.6-2.3,6.1c-0.3,2.6,0.5,4.7,0.8,5.8c0.1,0.3,0.1,0.4,0.2,0.6c-0.8,1.9-2.1,5.5-0.8,10.1c0.4,1.3,0.8,2.3,1.2,3.2
	c0,0.3,0,0.8-0.1,1.3c-0.1,1.2-0.4,2.5-0.7,3.9c-0.5,2.2-1,4.4-1.2,6.9c-0.1,1.4-0.1,2.7,0,3.9c-0.9,1.4-2,3.5-2.3,6.4
	c-0.1,2.3,0.5,4.4,1.6,6.2c0,0.2,0,0.3,0,0.5c0,1.5-0.1,3.2-0.2,4.7c0,0,0,0.1-0.1,0.1c-0.7,1.3-1.9,3.6-2.3,6.4
	c-0.2,1.3-0.2,2.6,0.1,3.8c-0.6,4.8-1.1,6.6-1.2,7.1c-1.9,3.2-2.5,6.1-2.8,8.4c-0.3,1.7-0.1,2.9,0.2,5c-0.4,3.3-0.7,7-0.9,10.5
	c-0.2,3.5-0.5,7.5-1,10.7c-0.2,1.2-0.5,2.5-0.8,3.9c-0.3,1.5-0.7,3-0.9,4.5c-0.7,3.9-1.2,8.7-1.7,13.7s-1.1,10.2-1.8,13.8
	c-1.7,8.6-3.3,15.4-5.1,20.7c-18.6-5-29.8-8.9-29.9-8.9c-0.8-0.3-1.7-0.4-2.5-0.4c-1.8,0-3.6,0.6-5,1.9c-2,1.8-3,4.6-2.4,7.2
	l8.1,37.7l-22.8,13.1c-2.5,1.5-4,4.3-3.7,7.2s2.2,5.4,5,6.4c0.4,0.1,10,3.5,26.4,8.2l-3.3,10.6c-1.2,3.8,0.9,8,4.7,9.3
	c0.2,0.1,5.1,1.8,13.9,4.5c0,0.3,0,0.6,0.1,0.9c3.1,12.4,9.7,17.6,14.8,19.8c1.2,0.5,2.5,0.8,3.9,0.9c2.9,0.1,58.2,1.8,58.3,1.8
	c2.6,0,90.4,8.2,126.7,8.2c33.5,0,115.5-6.6,118.1-6.6c0.1,0,0.1,0,0.2,0c26.2-0.6,49-1.6,67.6-3c5.7-0.4,10-5.4,9.7-11.1l-0.6-8.5
	c13.7-4,21.5-6.8,21.9-6.9c3.8-1.4,5.9-5.5,4.6-9.4l-3.4-10.4c16.5-4.7,26.2-8.1,26.6-8.3c2.7-1,4.7-3.5,4.9-6.4
	C550.2,387,548.8,384.2,546.3,382.8z"/>
<g>
	<path class="st1" d="M413.1,312.4v-1.6c0-4.2-1.9-5.6-8.9-5.6c-6.3,0-9.6,1.1-9.6,8.4v5.1C411,318.6,413.1,317.6,413.1,312.4z"/>
	<path class="st1" d="M499.3,187.5c-0.4-0.5-0.7-1-0.9-1.5c-0.2-0.4-0.3-0.9-0.5-1.3c-0.5-1.5-1.2-3.3-2.8-4.7
		c-1.3-1.2-2.9-1.4-4-1.6c-0.3,0-0.6-0.1-0.9-0.2c-0.1-0.1-0.2-0.2-0.3-0.4c-0.5-0.5-1.1-1.2-1.9-1.7s-1.9-0.6-2.9-0.4
		c-0.2-0.7-0.5-1.6-1.2-2.3s-1.4-1.1-1.9-1.4c-0.2-0.1-0.3-0.2-0.4-0.2c-1.3-2.9-2.5-5.7-2.5-5.7c-0.4-1.1-1.5-1.8-2.8-1.8l-99.3,3
		c-0.8,0-1.6,0.4-2.1,1c-1.4,1.6-4.1,3.9-5.5,3.9c-0.5,0-1.1-0.1-1.8-0.3c-0.9-0.2-2-0.4-3.4-0.4c-2.3,0-3.6,0.5-4.8,0.9
		c-0.4,0.1-0.7,0.3-1.1,0.4c-0.7,0.2-1.6,0.3-2.6,0.4c-1,0.1-2.2,0.3-3.3,0.6c-0.1-0.1-0.3-0.2-0.4-0.2c-0.6-0.4-1.6-0.9-2.8-0.9
		c-0.8,0-1.5,0.2-2.1,0.6c-1.4,0.8-2.2,1.8-2.8,2.6c-0.8,1.1-1.5,1.9-6.4,2.1c-1.5,0-3.5,0.7-7.1,2c-1.6,0.6-3.4,1.2-5.1,1.7
		c-3.7,1.1-5.7,2.5-7.4,3.6c-1.2,0.8-2.1,1.5-3.7,1.8c-0.7,0.2-1.3,0.3-2,0.5c-1.9,0.5-3.9,1.1-5.4,1.1c-0.4,0-0.7,0-0.7,0
		c-0.1-0.1-0.1-0.2-0.3-0.4c-1.1-1.7-2.6-3.3-6.4-3.3c-0.3,0-0.5,0-0.8,0c-2.4,0.1-3.8,1.3-4.7,2.1c-0.3,0.3-0.6,0.5-0.8,0.6
		c-1,0.4-1.9,0.8-2.8,1.1c-1.4,0.5-2.9,1-4.4,1.9c-1.5,0.8-3,1.1-5.7,1.1c-1.2,0-2.6-0.1-4.2-0.1c-0.3-0.1-1.2-0.5-1.9-0.8
		c-2.5-1.1-6.2-2.7-10.1-3.3c-1.1-0.2-2.1-0.3-3.1-0.5c-2.6-0.4-4.4-0.7-8.9-0.8h-0.7c-5.5,0-10.4,1-14.7,3
		c-1.4,0.7-2.9,1.4-4.5,2.2c-4.9,2.5-11.1,5.6-14.9,5.7h-0.3c-3.5,0-7.4-1.7-10.7-3.3c-0.9-0.4-1.9-0.7-3.1-1.1
		c-1.7-0.5-3.9-1.2-4.5-2c-0.1-0.2,0.1-1.2,0.1-1.8c0.1-1,0.3-2.3,0.3-3.9c-0.1-1.8-0.8-2.8-1.3-3.4c-0.3-0.4-0.4-0.5-0.4-1
		c-0.1-0.9,0-2.1,0.1-3.4c0.1-2.1,0.3-4.1-0.3-5.8c-2.1-6.4-5.3-11.1-9.2-13.5c-0.6-0.3-1.3-1-2.1-1.6c-1.8-1.6-3.7-3.2-6.1-3.5
		c-2.6-0.3-5.1,0.9-6.8,1.7c-0.5,0.3-1.5,0.8-1.9,0.8c-0.2,0-0.4,0-0.6,0c-1.7,0-2-0.4-2-0.5c0-6.2-3.1-7.7-5-8.1
		c-3-0.5-4.7,1-5.9,2.1l-0.1,0.1c-0.9-0.1-2.2-0.1-3.3,0.4c-2.7,1.2-3.6,1.3-5.2,1.3c-0.3,0-0.7,0-1.1,0.1c-1.5,0.1-2.7,0.6-3.6,1.3
		c-1.4-0.7-2.5-1.2-3.7-1.2c-1.1,0-2.1,0.4-2.8,1.3c-1.5,1.7-1.2,4.1-0.6,8.6c0,0.2,0.1,0.6,0.2,1.1c0.2,1,0.7,2.6,0.7,4.5
		c-1,0.5-2.7,1.6-2.9,4c-0.1,1,0.2,1.8,0.5,2.7c0.4,1.1,0.8,2.3,0.6,4.1c0,0.4-0.2,0.9-0.5,1.4c-0.6,1.3-1.3,3.2-0.7,5.6
		c0.3,1,0.7,1.7,0.9,2.2c0.4,0.7,0.7,1.3,0.5,4.7c-0.1,1.6-0.5,3.2-0.9,5c-0.4,1.9-0.9,3.8-1,6c-0.1,1.4,0,2.5,0.2,3.4
		c0.1,0.7,0.2,1.3,0.1,1.9c-0.2,0.2-0.5,0.6-0.7,0.9c-0.8,1-1.6,2.1-1.8,3.7c-0.1,1.3,0.6,2.3,1.8,2.9c-0.1,1.2-0.1,2.4-0.1,3.6
		c-0.1,1.9-0.1,4.1-0.3,6.1c-0.1,0.7-0.4,1.2-0.8,2.1c-0.6,1-1.3,2.3-1.5,4.1c-0.1,0.6,0,1.3,0.3,1.9v0.2c-0.4,3-1.1,9.1-2.4,11.3
		c-1.3,2.1-1.6,4.1-1.9,6c-0.1,0.5,0,0.9,0.2,2.7l0.1,0.9c-0.5,3.4-0.7,7.4-1,10.9c-0.2,3.8-0.5,8-1.1,11.5
		c-0.2,1.4-0.6,2.9-0.9,4.3s-0.6,2.8-0.9,4.2c-0.6,3.8-1.1,8.4-1.6,13c-0.6,5.3-1.2,10.7-1.9,14.7c-2,10.2-4,18.1-6.1,24
		c0.8,0.2,1.5,0.4,2.3,0.6c3.6,0.9,7.3,1.8,11,2.6l0,0c0,0,0,0,0.1,0c0,0,0,0,0.1,0c0.4,0.1,0.7,0.2,1.1,0.4c0.1,0,0.1,0.1,0.2,0.1
		c0.3,0.2,0.7,0.5,0.9,0.8c0,0,0,0.1,0.1,0.1c0.3,0.3,0.5,0.6,0.6,0.9l0.1,0.1c0.2,0.4,0.3,0.8,0.4,1.2c0,0,0,0,0,0.1v0.1
		c0,0.2,0.1,0.4,0.1,0.6s0,0.4-0.1,0.6v0.1c0,0.3-0.1,0.6-0.2,0.9l-4.6,14.7c33.7,9.5,96.7,24,168.1,24c1.9,0,3.8,0,5.7,0
		c77,0,139.7-14.2,172.7-23.5l-4.9-14.9c0-0.1,0-0.2-0.1-0.4c-0.1-0.2-0.1-0.5-0.1-0.7s0-0.4,0-0.7c0-0.1,0-0.3,0-0.4
		s0.1-0.2,0.1-0.3c0.1-0.2,0.1-0.4,0.2-0.6s0.2-0.4,0.3-0.6c0.1-0.2,0.2-0.4,0.4-0.5c0.1-0.2,0.3-0.4,0.5-0.5
		c0.1-0.1,0.1-0.2,0.2-0.2c0.1-0.1,0.2-0.1,0.3-0.1c0.2-0.2,0.5-0.3,0.8-0.4c0.2-0.1,0.4-0.2,0.6-0.2c0.1,0,0.2-0.1,0.2-0.1
		c2.2-0.5,4.3-1,6.4-1.5c1.2-0.3,2.4-0.6,3.6-0.9l-1.5-22.4c0.5-0.2,0.9-0.6,1.2-1.1c0.2-0.4,2.1-3.5,1.3-7.3
		c0.8-1.4,1.6-3.4,1.2-5.5c-0.2-0.8-0.6-1.9-1.6-2.9c1.3-1.3,2.4-3.2,2.6-4.9c0.5-2.6-0.7-5-3.1-6.3c-0.7-0.4-1.2-0.7-1.5-0.9
		c-0.1-0.4-0.2-0.9-0.5-1.4c-0.9-1.9-2.6-2.8-4.9-2.8c-0.7,0-1.5,0.1-2.5,0.2c-0.6,0.1-1.2,0.1-1.9,0.2c-0.1-0.1-0.2-0.2-0.4-0.4
		c-0.4-0.4-2.3-3-1.7-9.1c0.1-0.8,0.4-1.4,1.4-2.7c0.9-1.4,2.2-3.2,3.6-6.3c0.5-1.2,0.9-2.5,1.3-4.1c0.5-2.2,1.2-4.9,2.4-5.8
		c6.7-5.6,8.5-9.9,9.4-13c0.6-2.1-0.1-3.8-0.6-5c-0.1-0.2-0.3-0.7-0.3-0.8c0-0.7,0.9-2,1.5-2.9c0.7-1,1.5-2.1,1.9-3.3
		c0.1-0.2,0.2-0.5,0.4-0.8c0.9-1.7,2.2-4.3,2.9-11.6c0.4-4.4,2.8-8.9,5.2-13.1c0.7-1.3,0.9-2.6,0.9-3.6c0-0.3,0.1-0.8,0.1-0.9
		c0.4-0.8,0.9-1.5,1.4-2.1c0.8-1.1,1.5-2.1,1.8-3.5C501.9,191,500.4,189,499.3,187.5z M258.4,229.9c0-0.3,0.3-0.6,0.6-0.6h1.5
		c0.3,0,0.6,0.3,0.6,0.6v28.3h9.6c0.3,0,0.6,0.3,0.6,0.6v1.5c0,0.3-0.3,0.6-0.6,0.6H259c-0.3,0-0.6-0.3-0.6-0.6V229.9z M230.5,229.9
		c0-0.3,0.3-0.6,0.6-0.6h1.5c0.3,0,0.6,0.3,0.6,0.6v30.4c0,0.3-0.3,0.6-0.6,0.6h-1.5c-0.3,0-0.6-0.3-0.6-0.6V229.9z M190.8,258
		c0-0.2,0.1-0.4,0.2-0.5c0.2-0.1,0.3-0.1,0.5-0.1c2.3,0.8,4.5,1.1,6.5,1.1c1.4,0,2.5-0.4,3.4-1.2c0.8-0.7,1.2-1.9,1.2-3.5V251
		c0-0.8-0.1-1.5-0.3-2.1s-0.5-1-0.8-1.3s-0.6-0.5-1.1-0.7s-0.9-0.3-1.2-0.4l-3-0.4c-0.5-0.1-1.2-0.3-1.9-0.6s-1.4-0.7-1.9-1.2
		s-0.9-1.2-1.2-2.1c-0.3-0.9-0.5-1.9-0.5-3.1v-3c0-2.4,0.7-4.2,2.1-5.4c1.4-1.2,3.1-1.9,5.2-1.9c1.8,0,3.8,0.3,6,0.8
		c0.3,0.1,0.4,0.3,0.4,0.5v1.6c0,0.2-0.1,0.3-0.2,0.4c-0.1,0.1-0.3,0.1-0.5,0.1c-4.2-1.1-7.3-1.4-9.1,0.2c-0.8,0.7-1.2,1.9-1.2,3.4
		v2.9c0,0.8,0.1,1.5,0.3,2.1s0.4,1,0.6,1.3c0.2,0.3,0.5,0.5,0.9,0.7s0.8,0.3,1.1,0.3l3,0.4c0.5,0.1,1.2,0.3,2,0.6s1.5,0.7,2,1.2
		s1,1.2,1.4,2.1c0.4,0.9,0.6,2,0.6,3.2v3c0,2.4-0.7,4.2-2,5.5c-1.3,1.2-3.1,1.9-5.2,1.9c-2.2,0-4.5-0.4-6.9-1.1
		c-0.2-0.1-0.4-0.3-0.4-0.5L190.8,258L190.8,258z M199.8,348.8c-8.5,0-13.1-1.1-18.3-2.5c-1.9-0.5-2.6-1.2-2.6-2.7v-12
		c0-1.9,6.6-2.1,8.7-2.1c1.6,0,3.2,0.9,3.2,2.3v5.3c2.8,0.6,5.4,1.1,8.2,1.1c6.3,0,10.1-1.6,10.1-5c0-10-29.3-1.7-29.3-22.4
		c0-15.6,13.4-16.8,21.9-16.8c7,0,10.9,0.7,17.5,2.2c1.5,0.4,2,1,2,2.6v11.6c0,1.6-1.8,2.4-3.3,2.4c-2,0-8.6-0.2-8.6-2.1v-5.3
		c-2.2-0.4-4.5-0.8-7-0.8c-6.4,0-8.6,1.9-8.6,4.7c0,10,29.3,1.7,29.3,22.4C223,346.7,211.6,348.8,199.8,348.8z M286.1,347.4
		c-1.3,0.5-4.2,1.4-8.3,1.4c-6.1,0-11.9-2.5-11.9-12.2v-22.7c0-3.9-0.3-7-4.4-7c-2.9,0-8.3,1.9-11.9,3.4v26.5h4.3
		c2,0,2.2,1.5,2.2,3.1s-0.2,7.9-2.1,7.9h-23c-2,0-2.3-1.5-2.3-3.1s0.2-7.9,2.1-7.9h4.7V286c0-1-0.2-1.4-1.4-1.4h-2.3
		c-1.8,0-2.3-1.1-2.3-2.3c0-1.1,0.1-8.7,2.1-8.7h13.5c3.6,0,4.6,2.1,4.6,4.7v21.2c5.5-2.6,12.1-5.5,17.7-5.5
		c10.1,0,12.8,5.4,12.8,14.8V335c0,1.6,0.6,2.4,2,2.4c1.5,0,2.1-0.6,3.6-0.6c1.7,0,2,3.5,2,6.1C287.8,345.5,287.2,347,286.1,347.4z
		 M299.8,277.5c0-2.3,8.5-2.4,11.1-2.4s3.7,1,3.7,2.6v9.2c0,1.6-1.1,2.6-3.7,2.6s-11.1-0.1-11.1-2.4V277.5z M295.7,229.9
		c0-0.3,0.3-0.6,0.6-0.6h1.5c0.3,0,0.6,0.3,0.6,0.6v30.4c0,0.3-0.3,0.6-0.6,0.6h-1.5c-0.3,0-0.6-0.3-0.6-0.6V229.9z M318.8,347.8
		h-23.1c-2,0-2.3-1.5-2.3-3.1s0.2-7.9,2.1-7.9h4.7v-29.5c0-1-0.2-1.4-1.4-1.4h-2.3c-1.8,0-2.3-1.1-2.3-2.3c0-1.1,0.1-8.7,2.1-8.7
		h13.5c3.6,0,4.6,2.1,4.6,4.7v37.1h4.3c2,0,2.2,1.5,2.2,3.1C320.9,341.5,320.7,347.8,318.8,347.8z M323.5,254v-17.8
		c0-2.4,0.7-4.2,2.1-5.4s3.1-1.9,5.2-1.9c1.9,0,4,0.4,6,1.1c0.2,0.1,0.4,0.3,0.4,0.5v1.7c0,0.2-0.1,0.4-0.2,0.5
		c-0.2,0.1-0.3,0.1-0.5,0.1c-3.9-1.5-7.2-1.7-9.1,0c-0.8,0.8-1.2,1.9-1.2,3.5V254c0,1.6,0.4,2.7,1.2,3.5c1.8,1.7,5.2,1.4,9.1,0
		c0.2-0.1,0.4,0,0.5,0.1c0.2,0.1,0.2,0.3,0.2,0.5v1.7c0,0.2-0.2,0.5-0.4,0.5c-2.1,0.7-4.1,1.1-6,1.1c-2.1,0-3.9-0.6-5.2-1.9
		C324.2,258.1,323.5,256.3,323.5,254z M373.5,311.5c0,2.4-2.3,3.1-5.4,3.1c-1.4,0-8.1-0.2-8.1-2.9v-2.6c0-1.3-0.8-3-3.3-3
		c-2.9,0-6.7,2.2-9.2,3.8v27h4.3c2,0,2.2,1.5,2.2,3.1s-0.2,7.9-2.1,7.9h-23.1c-2,0-2.3-1.5-2.3-3.1s0.2-7.9,2.1-7.9h4.7v-29.5
		c0-1-0.2-1.4-1.4-1.4h-2.3c-1.8,0-2.3-1.1-2.3-2.3c0-1.1,0.1-8.7,2.1-8.7h13.5c3.5,0,4.5,2,4.6,4.6c5.5-3.1,10.1-5.6,15.3-5.6
		c8.9,0,10.6,4.4,10.6,15L373.5,311.5L373.5,311.5z M376.2,254c0,2.4-0.7,4.2-2,5.4c-1.3,1.2-3.1,1.9-5.2,1.9s-3.9-0.6-5.2-1.9
		c-1.4-1.2-2.1-3.1-2.1-5.4v-17.8c0-2.4,0.7-4.2,2.1-5.4s3.1-1.9,5.2-1.9s3.8,0.6,5.2,1.9c1.4,1.3,2,3.1,2,5.4V254z M401.5,229.9
		c0-0.3,0.3-0.6,0.6-0.6h1.4c0.2,0,0.4,0.1,0.5,0.4l8.9,22.9v-22.7c0-0.3,0.3-0.6,0.6-0.6h1.5c0.3,0,0.6,0.3,0.6,0.6v30.4
		c0,0.3-0.3,0.6-0.6,0.6h-1.4c-0.2,0-0.4-0.1-0.5-0.4l-9-22.9v22.7c0,0.3-0.3,0.6-0.6,0.6H402c-0.3,0-0.6-0.3-0.6-0.6v-30.4H401.5z
		 M426.1,346c-6.2,1.8-12.7,2.8-21.1,2.8c-16.8,0-24.5-5.3-24.5-21.3v-13.7c0-16.3,7.4-19.7,24.2-19.7c12.9,0,21.9,2.2,21.9,15v6.7
		c0,10.2-5.9,13.5-31.9,13.5v1.5c0,4,2.8,6.6,11.8,6.6c6.8,0,13.2-1,17.5-2c0.3-0.1,0.5-0.1,0.8-0.1c1.4,0,2.8,3.3,2.8,7.3
		C427.5,344.3,427.2,345.7,426.1,346z"/>
	<path class="st1" d="M369,231.5c-1.4,0-2.6,0.4-3.4,1.1c-0.8,0.7-1.2,1.9-1.2,3.5V254c0,1.6,0.4,2.7,1.2,3.5c0.9,0.8,2,1.2,3.4,1.2
		s2.5-0.4,3.4-1.2c0.8-0.8,1.2-1.9,1.2-3.5v-17.8c0-1.6-0.4-2.7-1.2-3.5C371.5,231.9,370.4,231.5,369,231.5z"/>
	<path class="st1" d="M485.8,431c-15.5,4.3-39.1,10.3-67.3,15.4c26.1-0.6,48.7-1.6,67.2-2.9c1.6-0.1,2.8-1.5,2.7-3.1l-0.7-9.9
		C487.1,430.6,486.5,430.8,485.8,431z"/>
	<path class="st1" d="M104.1,428c1.9,7.5,5.5,12.6,10.5,14.7c0.3,0.1,0.7,0.2,1.1,0.2c2.6,0.1,24.9,0.9,58.1,1.8
		c-29.2-5.6-53.2-12-68.8-16.5C104.6,428.2,104.4,428.1,104.1,428z"/>
</g>
<g>
	<path class="st1" d="M86.5,398.1V398l12.7-40.8h0.1c0.3-1,1-1.9,2-2.5l15.8-9.4l3.6-2.1c-1.6-0.4-3.2-0.8-4.8-1.2
		c-1-0.2-1.9-0.5-2.8-0.7c-23.3-5.9-37.2-10.8-37.2-10.8l9.2,43l-27.5,15.8C57.5,389.2,68.2,393,86.5,398.1z"/>
	<path class="st1" d="M498,355.2c0.9,0.6,1.6,1.4,1.9,2.4h0.1l13.2,40.4l0.1,0.2c18.5-5.2,29.2-9,29.2-9l-27.4-16l8.4-42.3
		c0,0-15.3,5.6-41.6,12c-1,0.2-1.9,0.5-2.9,0.7h-0.1l2.5,1.5L498,355.2z"/>
	<path class="st1" d="M110.1,355.8l1.6,0.5l2.9,0.9l4.9,1.5l2.7,0.9l0,0l2.7-8.5l1-3.2l1-3.2l-3.7,2.2l-14.4,8.6L110.1,355.8z"/>
	<path class="st1" d="M474.7,351.7l2.7,8.4h0.1l0,0l1.4-0.4l1.3-0.4l4.6-1.5l2.9-0.9l2.9-0.9l-14.2-8.6l-3.8-2.3l1.1,3.3
		L474.7,351.7z"/>
</g>
<path class="st1" d="M273.8,413l-2-0.1l-0.4,9.2l2.3,0.1c1.7,0,2.5-0.7,2.6-2.4l0.2-4.2c0-0.9-0.1-1.5-0.6-1.9
	C275.4,413.3,274.7,413,273.8,413z"/>
<path class="st1" d="M413.7,405.1c-0.2-0.9-0.5-1.5-1-1.8c-0.4-0.2-0.8-0.3-1.3-0.3c-0.2,0-0.4,0-0.7,0.1c-0.8,0.1-1.4,0.5-1.8,0.9
	c-0.3,0.5-0.4,1.1-0.3,2l2.2,12.3c0.2,0.9,0.5,1.5,1,1.8s1.2,0.4,2,0.3s1.4-0.4,1.7-0.9c0.4-0.5,0.4-1.1,0.3-2L413.7,405.1z"/>
<path class="st1" d="M212,417.4c-1.4,0-2,0.6-2.3,2.1l-0.3,2.1c-0.1,0.9,0,1.5,0.4,1.9c0.4,0.5,1.1,0.8,1.9,0.9
	c1.2,0.2,2.3,0.2,2.6-2.1l0.6-4.5l-2.2-0.3C212.5,417.4,212.3,417.4,212,417.4z"/>
<path class="st1" d="M259.2,412.1l-2-0.1l-0.7,9.2l2,0.1c1.9,0.1,2.8-0.5,2.9-2.3l0.3-4.2c0.1-0.9-0.1-1.5-0.5-1.9
	C260.7,412.4,260.1,412.2,259.2,412.1z"/>
<path class="st1" d="M377.7,411c-0.1-0.9-0.4-1.5-0.9-1.8c-0.5-0.4-1.2-0.5-1.9-0.4l-2.2,0.3l2.1,16.9l2.2-0.3
	c0.8-0.1,1.4-0.4,1.8-0.8s0.5-1.1,0.4-2L377.7,411z"/>
<path class="st1" d="M428.6,402.5c-0.2-0.9-0.5-1.4-1-1.7c-0.6-0.3-1.3-0.4-2.2-0.2l-1.9,0.4l1.8,9l1.9-0.4c2.2-0.4,2.5-1.5,2.2-3
	L428.6,402.5z"/>
<path class="st1" d="M510.3,403.8l-0.7-2.2l-0.7-2.2l-11.8-36.1l-0.7-2.2l-0.7-2.2l-2.9,0.9l-2.9,0.9l-8.3,2.7l-1.3,0.4l-1.5,0.5
	l0,0c-0.7,0.2-1.4,0.4-2.2,0.6c-0.7,0.2-1.4,0.4-2.2,0.6c-31.5,8.9-95.6,23.7-174.1,23.7c-1.9,0-3.8,0-5.7,0
	c-72.8,0-137.3-15.1-169.4-24.2c-0.7-0.2-1.5-0.4-2.2-0.6s-1.5-0.4-2.2-0.6l0,0l-2.7-0.9l-8.7-2.7l-0.6-0.2l-2.3-0.7l-2.9-0.9
	l-0.7,2.2l-0.7,2.2l-11.4,36.5l-0.7,2.2l-0.7,2.2l-4.3,13.7c0,0,6.5,2.3,18.1,5.8c0.9,0.3,1.8,0.5,2.8,0.8
	c17.4,5.1,44.8,12.3,78.1,18.2c0.9,0.2,1.9,0.3,2.8,0.5c33.3,5.8,72.3,10.3,113.3,10.3c37.4,0,73-3.8,104.1-8.8
	c0.9-0.2,1.9-0.3,2.9-0.5c31.5-5.3,58.3-11.8,77.2-17.1c1-0.3,1.9-0.5,2.8-0.8c17.3-4.9,27.3-8.5,27.3-8.5L510.3,403.8z
	 M118.1,395.1l-0.3,1.1c-0.2,0.6-0.8,0.9-1.4,0.8l-4.9-1.5l-1.9,6.5l5.8,1.7c0.3,0.1,0.5,0.3,0.7,0.5c0.1,0.3,0.2,0.6,0.1,0.9
	l-0.3,1c-0.1,0.5-0.6,0.8-1.1,0.8c-0.1,0-0.2,0-0.3,0l-7.9-2.4c-0.3-0.1-0.5-0.3-0.7-0.5c-0.1-0.3-0.2-0.6-0.1-0.9l6.1-20.5
	c0.2-0.6,0.8-0.9,1.4-0.8l7.9,2.4c0.3,0.1,0.5,0.3,0.7,0.5c0.1,0.3,0.2,0.6,0.1,0.9l-0.3,1c-0.2,0.6-0.8,0.9-1.4,0.8l-5.8-1.7
	l-1.9,6.5l4.9,1.5c0.3,0.1,0.5,0.3,0.7,0.5C118.2,394.5,118.2,394.8,118.1,395.1z M128.8,409.6c-0.8,0.4-1.6,0.6-2.5,0.6
	c-0.6,0-1.2-0.1-1.8-0.3c-1.6-0.4-2.8-1.3-3.6-2.5c-0.8-1.3-0.9-2.8-0.4-4.6l4.4-16.4c0.1-0.3,0.3-0.5,0.5-0.7
	c0.3-0.2,0.6-0.2,0.9-0.1l1,0.3c0.6,0.2,1,0.8,0.8,1.4l-4.4,16.4c-0.2,0.9-0.2,1.5,0.1,2c0.3,0.5,0.8,0.8,1.6,1
	c0.7,0.2,1.3,0.2,1.8-0.1c0.5-0.3,0.9-0.9,1.1-1.7l4.4-16.4c0.2-0.6,0.8-1,1.4-0.8l1,0.3c0.3,0.1,0.5,0.3,0.7,0.5
	c0.2,0.3,0.2,0.6,0.1,0.9l-4.4,16.4C130.9,407.6,130,408.9,128.8,409.6z M149.1,395.1c-0.3,0.1-0.7,0.1-1,0
	c-1.4-0.7-2.6-1.2-3.6-1.5c-0.8-0.2-1.5-0.1-2,0.1c-0.5,0.3-0.9,0.8-1.1,1.7l-3,12.2c-0.2,0.9-0.2,1.5,0.2,2
	c0.3,0.5,0.9,0.9,1.7,1.1s1.6,0.3,2.5,0.3l1.6-6.7l-2.7-0.7c-0.6-0.1-1-0.8-0.8-1.4l0.3-1.1c0.1-0.3,0.3-0.5,0.5-0.7
	c0.3-0.2,0.6-0.2,0.9-0.1l4.8,1.2c0.6,0.1,1,0.8,0.8,1.4l-2.6,10.5c-0.1,0.5-0.5,0.8-1,0.9c-0.4,0-0.8,0-1.2,0
	c-1.4,0-2.7-0.2-3.9-0.4c-1.6-0.4-2.9-1.2-3.7-2.4c-0.9-1.3-1.1-2.8-0.6-4.6l3-12.2c0.4-1.8,1.4-3.1,2.7-3.8
	c1.3-0.7,2.8-0.9,4.4-0.5c1.3,0.3,2.7,0.9,4.1,1.6c0.5,0.2,0.7,0.8,0.6,1.3l-0.3,1.1C149.7,394.6,149.4,394.9,149.1,395.1z
	 M160.6,404.5c0.6,0.1,1,0.7,0.9,1.4l-0.2,1.1c-0.1,0.3-0.2,0.5-0.5,0.7s-0.6,0.2-0.9,0.1l-5-1.1l-1.5,6.6l5.9,1.3
	c0.3,0.1,0.5,0.2,0.7,0.5s0.2,0.6,0.1,0.9l-0.2,1c-0.1,0.5-0.6,0.9-1.1,0.9c-0.1,0-0.2,0-0.2,0l-8.1-1.8c-0.3-0.1-0.5-0.2-0.7-0.5
	s-0.2-0.6-0.2-0.9l4.7-20.9c0.1-0.3,0.2-0.5,0.5-0.7s0.6-0.2,0.9-0.1l8.1,1.8c0.3,0.1,0.5,0.2,0.7,0.5s0.2,0.6,0.1,0.9l-0.2,1
	c-0.1,0.6-0.7,1-1.4,0.9l-5.9-1.3l-1.5,6.6L160.6,404.5z M173.4,421c-0.1,0-0.2,0-0.2,0l-1-0.2c-0.5-0.1-0.8-0.5-0.9-0.9l-2.3-13.2
	l-2.4,11.9c-0.1,0.3-0.2,0.6-0.5,0.7c-0.3,0.2-0.6,0.2-0.9,0.2l-1-0.2c-0.6-0.1-1-0.7-0.9-1.3l4.2-21c0.1-0.3,0.2-0.6,0.5-0.7
	c0.3-0.2,0.6-0.2,0.9-0.2l1,0.2c0.5,0.1,0.8,0.5,0.9,0.9l2.3,13.2l2.4-11.8c0.1-0.6,0.7-1,1.3-0.9l1.1,0.2c0.3,0.1,0.6,0.2,0.7,0.5
	c0.2,0.3,0.2,0.6,0.2,0.9l-4.2,21C174.4,420.6,173.9,421,173.4,421z M192.6,402.7c-0.1,0.6-0.7,1-1.3,0.9l-6-1.1l-1.2,6.7l5.1,0.9
	c0.6,0.1,1,0.7,0.9,1.3l-0.2,1.1c-0.1,0.3-0.2,0.6-0.5,0.7s-0.5,0.2-0.8,0.2l-5.1-0.9l-1.2,6.7l6,1.1c0.3,0.1,0.6,0.2,0.7,0.5
	c0.2,0.2,0.2,0.6,0.2,0.9l-0.2,1.1c-0.1,0.5-0.6,0.9-1.1,0.9c-0.1,0-0.1,0-0.2,0l-8.1-1.5c-0.3-0.1-0.6-0.2-0.7-0.5
	c-0.2-0.2-0.2-0.6-0.2-0.8l3.8-21.1c0.1-0.6,0.7-1,1.3-0.9l8.1,1.5c0.3,0.1,0.6,0.2,0.7,0.5c0.2,0.2,0.2,0.6,0.2,0.9L192.6,402.7z
	 M221.4,417.5c-0.1,0.6-0.7,1.1-1.3,1l-1.8-0.3l-0.6,4.5c-0.3,1.8-1,3.2-2.1,4c-0.9,0.7-1.9,1-3.2,1c-0.3,0-0.7,0-1.1-0.1
	c-1.7-0.2-3-0.9-4-2c-1-1.2-1.4-2.7-1.1-4.5l0.3-2.1c0.3-2,1.1-3.2,2.1-3.9c-0.8-0.9-1.3-2.3-1-4.3l0.3-2c0.3-1.8,1-3.2,2.3-4.1
	c1.2-0.8,2.6-1.1,4.3-0.9c1.5,0.2,2.9,0.7,4.3,1.4c0.4,0.2,0.7,0.7,0.6,1.2l-0.2,1.2c-0.1,0.4-0.3,0.7-0.6,0.9
	c-0.3,0.2-0.7,0.2-1.1,0c-1.3-0.7-2.5-1.1-3.5-1.3c-0.8-0.1-1.4,0-1.9,0.3s-0.8,0.9-0.9,1.8l-0.3,2c-0.1,0.9,0,1.5,0.3,2
	c0.4,0.5,1,0.8,2,0.9l7.4,1c0.3,0,0.6,0.2,0.7,0.4c0.2,0.2,0.3,0.5,0.2,0.8L221.4,417.5z M249.8,410.6c0,0.3-0.2,0.7-0.5,0.9
	c-0.3,0.2-0.7,0.2-1,0.1c-1.4-0.5-2.7-0.9-3.8-1c-0.8-0.1-1.5,0.1-2,0.4s-0.7,0.9-0.8,1.8l-0.2,2.1c0,0.5,0,0.9,0,1.2
	c0.1,0.4,0.2,0.6,0.3,0.7s0.2,0.2,0.4,0.3c0.3,0.2,0.4,0.2,0.5,0.2l2.1,0.5c0.4,0.1,0.9,0.3,1.5,0.6c0.6,0.3,1.1,0.7,1.5,1.2
	s0.7,1.1,1,1.8c0.2,0.8,0.3,1.6,0.2,2.6l-0.2,2.1c-0.2,1.9-0.9,3.3-2.1,4.2c-1,0.8-2.2,1.1-3.5,1.1c-0.2,0-0.5,0-0.7,0
	c-1.6-0.2-3.3-0.6-5-1.3c-0.5-0.2-0.7-0.7-0.7-1.2l0.1-1.1c0-0.4,0.2-0.7,0.6-0.9c0.3-0.2,0.7-0.2,1-0.1c1.5,0.7,3,1.1,4.3,1.2
	c0.8,0.1,1.4-0.1,1.9-0.4s0.7-1,0.8-1.8l0.2-2.1c0-0.5,0-0.9-0.1-1.2c-0.1-0.4-0.2-0.6-0.3-0.7s-0.3-0.3-0.5-0.4
	c-0.4-0.2-0.5-0.2-0.6-0.3l-2.1-0.5c-0.4-0.1-0.9-0.3-1.5-0.6c-0.6-0.3-1.1-0.7-1.4-1.2c-0.4-0.5-0.6-1.1-0.9-1.8
	c-0.2-0.7-0.3-1.6-0.2-2.5l0.2-2.1c0.2-1.9,0.9-3.3,2.1-4.2c1.2-0.9,2.6-1.2,4.3-1.1c1.3,0.1,2.8,0.5,4.3,1c0.5,0.2,0.8,0.7,0.7,1.2
	L249.8,410.6z M265.1,415l-0.3,4.2c-0.1,0.9-0.3,1.8-0.6,2.5c-0.3,0.7-0.8,1.3-1.2,1.7c-0.5,0.4-1,0.7-1.6,0.9
	c-0.6,0.2-1.1,0.3-1.6,0.4c-0.5,0-0.9,0-1.4,0l-2-0.1l-0.5,6.6c0,0.3-0.2,0.6-0.4,0.8c-0.2,0.2-0.5,0.3-0.7,0.3h-0.1l-1.1-0.1
	c-0.6,0-1.1-0.6-1-1.2l1.5-21.4c0-0.3,0.2-0.6,0.4-0.8c0.2-0.2,0.5-0.3,0.8-0.3l4.2,0.3c1.7,0.1,3.1,0.7,4.2,1.8
	C264.7,411.7,265.2,413.2,265.1,415z M279.8,415.8l-0.2,4.2c-0.1,2.8-1.5,4.3-2.9,4.9l2.9,7.1c0.1,0.4,0.1,0.8-0.1,1.1
	c-0.2,0.3-0.6,0.5-0.9,0.5c0,0,0,0-0.1,0l-1.2-0.1c-0.4,0-0.8-0.3-1-0.7l-3-7.3c-0.1,0-0.1,0-0.2,0l-2-0.1l-0.3,6.6
	c0,0.3-0.1,0.6-0.4,0.8c-0.2,0.2-0.5,0.3-0.8,0.3l-1.1-0.1c-0.6,0-1.1-0.6-1.1-1.2l1-21.4c0-0.3,0.1-0.6,0.4-0.8
	c0.2-0.2,0.5-0.3,0.8-0.3l4.2,0.2c1.7,0.1,3.2,0.7,4.3,1.7C279.4,412.4,279.9,413.9,279.8,415.8z M286.7,432.7
	c0,0.6-0.5,1.1-1.1,1.1l0,0h-1.1c-0.3,0-0.6-0.1-0.8-0.4c-0.2-0.2-0.3-0.5-0.3-0.8l0.6-21.4c0-0.6,0.6-1.1,1.2-1.1h1.1
	c0.3,0,0.6,0.1,0.8,0.4c0.2,0.2,0.3,0.5,0.3,0.8L286.7,432.7z M302.2,432.9c0,0.6-0.5,1.1-1.1,1.1l0,0h-1c-0.5,0-0.9-0.3-1-0.7
	l-4.8-12.5l-0.1,12.1c0,0.3-0.1,0.6-0.3,0.8c-0.2,0.2-0.6,0.4-0.8,0.3H292c-0.6,0-1.1-0.5-1.1-1.1l0.1-21.4c0-0.3,0.1-0.6,0.3-0.8
	c0.2-0.2,0.5-0.3,0.8-0.3h1c0.5,0,0.9,0.3,1.1,0.7l4.8,12.5l0.1-12.1c0-0.3,0.1-0.6,0.3-0.8c0.2-0.2,0.5-0.3,0.8-0.3h1.1
	c0.6,0,1.1,0.5,1.1,1.1L302.2,432.9z M317.4,433.2c-1.7,0.6-3.4,0.9-5,0.9h-0.2c-1.6,0-2.9-0.5-4-1.4c-1.2-1-1.8-2.5-1.8-4.3
	l-0.3-12.5c0-1.9,0.5-3.4,1.6-4.4s2.5-1.5,4.1-1.6h0.3c1.3,0,2.7,0.2,4.1,0.5c0.5,0.1,0.9,0.6,0.9,1.1v1.1c0,0.4-0.2,0.7-0.4,0.9
	c-0.3,0.2-0.6,0.3-1,0.2c-1.4-0.3-2.6-0.5-3.7-0.5c-1,0-1.6,0.2-2.1,0.7c-0.4,0.4-0.6,1-0.6,1.9l0.3,12.5c0,0.9,0.2,1.5,0.7,1.9
	s1,0.6,1.8,0.6c0.9,0,1.7-0.1,2.6-0.3l-0.2-6.9l-2.7,0.1c-0.6,0-1.1-0.5-1.2-1.1v-1.1c0-0.3,0.1-0.6,0.3-0.8
	c0.2-0.2,0.5-0.3,0.8-0.3l4.9-0.1c0.3,0,0.6,0.1,0.8,0.3s0.3,0.5,0.3,0.8l0.2,10.8C318.2,432.6,317.9,433.1,317.4,433.2z
	 M331.5,412.4c-0.2,0.2-0.5,0.4-0.8,0.4l-6.1,0.3l0.3,6.8l5.2-0.2c0.3,0,0.6,0.1,0.8,0.3c0.2,0.2,0.4,0.5,0.4,0.8l0.1,1.1
	c0,0.6-0.5,1.2-1.1,1.2l-5.2,0.2l0.4,9c0,0.3-0.1,0.6-0.3,0.8c-0.2,0.2-0.5,0.4-0.8,0.4h-1.1c0,0,0,0-0.1,0c-0.6,0-1.1-0.5-1.1-1.1
	l-1-21.4c0-0.3,0.1-0.6,0.3-0.8c0.2-0.2,0.5-0.4,0.8-0.4l8.2-0.4c0.7,0,1.2,0.5,1.2,1.1l0.1,1.1
	C331.8,411.9,331.7,412.2,331.5,412.4z M338.6,432.7l-1.1,0.1c0,0,0,0-0.1,0c-0.3,0-0.5-0.1-0.7-0.3c-0.2-0.2-0.4-0.5-0.4-0.8
	l-1.4-21.4c0-0.6,0.4-1.2,1.1-1.2l1.1-0.1c0.3,0,0.6,0.1,0.8,0.3c0.2,0.2,0.4,0.5,0.4,0.8l1.4,21.4
	C339.7,432.1,339.3,432.6,338.6,432.7z M353.2,431.6l-8.2,0.7h-0.1c-0.6,0-1.1-0.4-1.1-1l-1.7-21.3c0-0.3,0.1-0.6,0.3-0.8
	c0.2-0.2,0.5-0.4,0.8-0.4l8.2-0.7c0.3,0,0.6,0.1,0.8,0.3c0.2,0.2,0.4,0.5,0.4,0.8l0.1,1.1c0.1,0.6-0.4,1.2-1,1.2l-6,0.5l0.6,6.8
	l5.1-0.4c0.3,0,0.6,0.1,0.8,0.3c0.2,0.2,0.4,0.5,0.4,0.8l0.1,1.1c0.1,0.6-0.4,1.2-1,1.2l-5.1,0.4l0.6,6.8l6-0.5
	c0.3,0,0.6,0.1,0.8,0.3c0.2,0.2,0.4,0.5,0.4,0.8l0.1,1.1C354.3,431,353.8,431.5,353.2,431.6z M367.2,430.2L359,431h-0.1
	c-0.6,0-1.1-0.4-1.1-1l-2.2-21.3c0-0.3,0.1-0.6,0.2-0.8c0.2-0.2,0.5-0.4,0.8-0.4l1.1-0.1c0.6-0.1,1.2,0.4,1.2,1l2,19.1l6-0.6
	c0.3,0,0.6,0.1,0.8,0.2c0.2,0.2,0.4,0.5,0.4,0.8l0.1,1.1C368.3,429.6,367.8,430.1,367.2,430.2z M381.4,427c-1,1.1-2.3,1.8-3.9,2
	l-4.4,0.6H373c-0.6,0-1-0.4-1.1-1l-2.7-21.2c0-0.3,0-0.6,0.2-0.8c0.2-0.2,0.5-0.4,0.8-0.4l4.4-0.6c1.7-0.2,3.1,0.1,4.3,1
	c1.2,0.9,2,2.3,2.2,4.1l1.5,11.9C382.8,424.3,382.4,425.8,381.4,427z M390.8,430.3c-0.1,0.5-0.5,0.9-1,0.9l-1.2,0.2
	c-0.1,0-0.1,0-0.2,0c-0.3,0-0.6-0.1-0.8-0.4c-0.3-0.3-0.4-0.6-0.3-1c0.2-0.9,0.3-1.8,0.3-2.6c-0.3-0.2-0.6-0.5-0.6-0.9l-0.4-2.8
	c-0.1-0.6,0.3-1.2,1-1.3l1.6-0.2c0.3,0,0.6,0,0.8,0.2c0.2,0.2,0.4,0.4,0.4,0.7l0.4,2.6C391.2,427.1,391.1,428.6,390.8,430.3z
	 M418.3,421.4c-0.9,1.2-2.2,1.9-3.8,2.2c-0.4,0.1-0.9,0.1-1.3,0.1c-1.1,0-2.2-0.3-3.1-0.9c-1.3-0.8-2.1-2.2-2.4-4l-2.2-12.3
	c-0.3-1.9,0-3.4,0.9-4.6s2.2-1.9,3.8-2.2c1.7-0.3,3.1,0,4.4,0.8s2.1,2.2,2.4,4l2.2,12.3C419.5,418.7,419.2,420.2,418.3,421.4z
	 M435.8,418.7c-0.1,0.4-0.5,0.6-0.8,0.7l-1.1,0.2c-0.4,0.1-0.9-0.1-1.1-0.4l-4.6-6.3c-0.1,0-0.1,0-0.2,0l-1.9,0.4l1.3,6.5
	c0.1,0.3,0,0.6-0.2,0.9s-0.4,0.4-0.7,0.5l-1.1,0.2c-0.1,0-0.2,0-0.2,0c-0.5,0-1-0.4-1.1-0.9l-4.2-21c-0.1-0.6,0.3-1.2,0.9-1.3
	l4.1-0.8c1.7-0.3,3.2-0.1,4.5,0.6c1.4,0.8,2.2,2.1,2.6,3.9l0.8,4.1c0.6,2.8-0.4,4.5-1.6,5.5l4.5,6.2
	C435.9,417.9,435.9,418.3,435.8,418.7z M448.9,416.4l-8.1,1.8c-0.1,0-0.2,0-0.2,0c-0.5,0-1-0.4-1.1-0.9l-4.6-20.9
	c-0.1-0.3,0-0.6,0.2-0.9s0.4-0.4,0.7-0.5l8.1-1.8c0.6-0.1,1.2,0.3,1.4,0.9l0.2,1c0.1,0.6-0.3,1.2-0.9,1.4l-5.9,1.3l1.5,6.7l5-1.1
	c0.3-0.1,0.6,0,0.9,0.2s0.4,0.4,0.5,0.7l0.2,1.1c0.1,0.3,0,0.6-0.2,0.9s-0.4,0.4-0.7,0.5l-5,1.1l1.5,6.7l5.9-1.3
	c0.3-0.1,0.6,0,0.9,0.2s0.4,0.4,0.5,0.7l0.2,1C449.9,415.6,449.5,416.2,448.9,416.4z M463.6,412.3c-1.6,0.9-3.1,1.6-4.7,2
	c-0.6,0.1-1.1,0.2-1.7,0.2c-1,0-1.9-0.2-2.7-0.7c-1.3-0.7-2.2-2-2.7-3.8l-3-12.2c-0.4-1.8-0.2-3.4,0.6-4.6c0.8-1.2,2.1-2,3.7-2.4
	c1.2-0.3,2.6-0.4,4-0.4h0.4c0.5,0,1,0.4,1.1,0.9l0.3,1.1c0.1,0.3,0,0.7-0.2,1s-0.6,0.5-0.9,0.4h-0.6c-1.3,0-2.4,0.1-3.3,0.3
	c-0.8,0.2-1.4,0.5-1.7,1.1c-0.3,0.5-0.4,1.1-0.2,2l3,12.2c0.2,0.9,0.6,1.4,1.1,1.7c0.5,0.3,1.2,0.3,2,0.2c0.8-0.2,1.6-0.5,2.4-0.9
	l-1.6-6.7l-2.7,0.6c-0.6,0.2-1.2-0.2-1.4-0.8l-0.3-1.1c-0.1-0.3,0-0.6,0.1-0.9c0.2-0.3,0.4-0.4,0.7-0.5l4.8-1.2
	c0.3-0.1,0.6,0,0.9,0.1c0.3,0.2,0.4,0.4,0.5,0.7l2.6,10.5C464.2,411.6,464,412.1,463.6,412.3z M477.8,407.9c-0.8,1.2-2,2.1-3.6,2.5
	c-0.6,0.2-1.2,0.3-1.8,0.3c-0.9,0-1.8-0.2-2.6-0.6c-1.4-0.7-2.3-2-2.8-3.8l-3.2-12.1c-0.5-1.8-0.3-3.4,0.5-4.7
	c0.8-1.2,2-2.1,3.6-2.5s3.1-0.3,4.4,0.4c1.3,0.7,2.3,2,2.7,3.8l3.2,12.1C478.8,405,478.7,406.6,477.8,407.9z M493.7,404.5l-0.9,0.3
	c-0.4,0.1-0.9,0-1.2-0.4l-8.3-10.6l3.5,11.6c0.2,0.6-0.2,1.2-0.8,1.4l-1,0.3c-0.1,0-0.2,0-0.3,0c-0.2,0-0.4,0-0.5-0.1
	c-0.3-0.1-0.5-0.4-0.5-0.7l-6.1-20.5c-0.2-0.6,0.2-1.2,0.8-1.4l1-0.3c0.4-0.1,0.9,0,1.2,0.4l8.2,10.6l-3.5-11.6
	c-0.2-0.6,0.2-1.2,0.8-1.4l1-0.3c0.3-0.1,0.6-0.1,0.9,0.1c0.3,0.1,0.5,0.4,0.5,0.7l6.1,20.5C494.6,403.7,494.3,404.3,493.7,404.5z"
	/>
<path class="st1" d="M471.9,392c-0.2-0.9-0.6-1.4-1.1-1.7c-0.3-0.2-0.7-0.2-1.1-0.2c-0.3,0-0.6,0-0.9,0.1c-0.8,0.2-1.3,0.6-1.7,1.1
	c-0.3,0.5-0.4,1.1-0.1,2l3.2,12.1c0.2,0.9,0.6,1.4,1.1,1.7c0.6,0.3,1.2,0.3,2,0.1c0.8-0.2,1.3-0.6,1.6-1.1c0.3-0.5,0.3-1.1,0.1-2
	L471.9,392z"/>
</svg>
