<svg xmlns="http://www.w3.org/2000/svg" width="118" height="40" viewBox="0 0 118 40">
    <g fill="none" fill-rule="evenodd">
        <path fill="#F5F6FA" d="M82.098 10v2.929h1.97v2.684a10.012 10.012 0 0 0-3.073-.461c-3.31.081-5.281 1.79-5.281 5.721v2.63c0 3.39 1.077 6.02 5.07 6.02.999 0 2.497-.326 3.81-1.03l.237.786h4.966V26.35h-1.813V10h-5.886zm-2.522 13.91v-3.145c0-2.007.683-2.468 2.312-2.468.893 0 1.55.109 2.18.272v7.51c-.709.163-1.628.299-2.18.299-1.84 0-2.312-.678-2.312-2.468zM44 10v2.929h1.97v16.133c2.313.352 4.362.46 6.096.46 5.15 0 6.175-2.63 6.175-6.019v-2.63c0-3.932-1.97-5.64-5.281-5.721-1.288 0-2.312.217-3.074.46V10H44zm5.886 16.269v-7.7a8.273 8.273 0 0 1 2.18-.272c1.63 0 2.313.461 2.313 2.468v3.145c0 1.79-.473 2.468-2.313 2.468-.551 0-1.418 0-2.18-.109zm62.56-9.68l-.342-1.193H106.9v2.929h1.971v8.025h-1.76v2.929h7.409V26.35h-1.734v-7.104c1.366-.433 3.705-.515 4.65-.542v-3.552c-1.707 0-3.363.84-4.992 1.437zm-21.073 4.582v2.63c0 3.932 1.97 5.64 5.281 5.722a10.53 10.53 0 0 0 2.97-.434c-.027.976-.29 1.898-1.288 2.25-1.366.516-3.941.489-6.332.489V35h1.13c1.55 0 3.967 0 6.069-.488 4.414-1.166 4.44-4.339 4.44-7.05v-9.137h1.971v-2.929h-5.124l-.236.786c-1.314-.705-2.811-1.03-3.81-1.03-3.994 0-5.07 2.63-5.07 6.02zm3.862 2.74v-3.146c0-1.79.473-2.468 2.313-2.468.551 0 1.471.136 2.18.298v7.511a8.283 8.283 0 0 1-2.18.272c-1.63 0-2.313-.461-2.313-2.468zm-31.319-8.434c-3.626.895-3.731 3.742-3.731 5.396v2.82c0 3.39 1.077 5.83 5.071 5.83.999 0 2.391-.326 3.705-1.03l.236.786h4.888V26.35H72.35V16.047c-2.128-.624-3.915-.895-5.885-.895-.92 0-1.63.108-2.549.325zm.184 8.406v-2.901c0-1.79.289-2.685 2.312-2.685.526 0 1.314.054 2.023.163v7.51c-.656.218-1.524.38-2.023.38-1.865 0-2.286-.678-2.312-2.467z"/>
        <path fill="#B5445B" d="M37.629 30.009l-16.826 9.737-16.825-9.737V10.535L20.803.798l16.826 9.737z"/>
        <path fill="#FFF" d="M37.048 19.391l-9.225-6.713-3.654-3.056-2.111-.804-3.189 2.186-3.598.197-4.146 1.987-5.11 2.798-4.424 1.228v2.96l1.21 1.916 3.485 1.115 9.462 1.334 17.834 7.482 2.787-1.923.529-.659z"/>
        <path fill="#282C4C" d="M20.77 38.784L4.48 29.358V22.96c.973.249 2.218.47 3.862.715l.034.005.033.005c4.554.686 6.599 1.776 6.744 1.856a24.25 24.25 0 0 1 8.208 8.58c.45.796.85 1.614 1.193 2.433l.013.032-3.797 2.197zm-8.343-21.403c-.014 0-.027.003-.04.004a.774.774 0 0 1 .092-.057.53.53 0 0 1 .25-.066c.146 0 .264.064.356.1.182.074.51.257.51.257-.255.037-.437.293-.766.403a.694.694 0 0 1-.146.028.382.382 0 0 0-.256-.669zm12.674-.666c-.287 0-.688-.268-.688-.268.334-.213.394-.67.394-.67a.487.487 0 0 1-.395.197c-.072 0-.12-.014-.12-.014.09-.214-.031-.427-.031-.427a.555.555 0 0 1-.496.273.709.709 0 0 1-.203-.03c.097-.316.02-.692-.016-.829l-.014-.053c-.004.01-.013.024-.021.037-.176.275-1.259.976-1.984 1.15a1.434 1.434 0 0 1-.319.049c-.317 0-.076-.262-.076-.262s.025-.045.075-.116l.002-.002c.17-.238.626-.775 1.442-1.008.08-.023.16-.044.243-.064a4.765 4.765 0 0 1 1.1-.145c.673 0 1.274.2 1.512.787.151.373.326.878.441 1.347.095.387.149.75.115.996a.45.45 0 0 1-.038.176h-.01c-.045.09-.117.144-.223.144a.425.425 0 0 1-.103-.014c-.486-.122-1.032-.761-1.032-.761.334-.122.577-.518.577-.518a.32.32 0 0 1-.132.025zm-21.53 1.789c-.073-.402-.813-1.141-1.098-1.414.643-.17 1.872-.495 3.348-.882 1.396-.366 6.48-4.33 10.28-4.85a23.507 23.507 0 0 1 1.619-.163 1.41 1.41 0 0 0 .32-.012c.335.005.858.022 1.514.072 1.036.098 2.086.255 2.606.338.444.07 1.182.232 1.994.422 1.76.465 3.611 1.186 5.182 2.307 4.08 2.91 6.417 5.051 6.551 5.354.13.292-6.727-.354-9.18-2.51-.097-.77-.432-1.679-.625-2.154-.208-.512-.731-1.123-2.046-1.123-.609 0-1.204.134-1.596.247-.106.03-.206.066-.302.103-.498-.134-.931-.204-1.267-.254-1.142-.168-2.956-.437-6.82.741-3.863 1.179-8.13 3.367-8.801 4.075-.672.707.067 1.717.672 2.155.604.437 1.243 1.178 1.478.572.235-.606.134-.74 1.008-.673.873.067 5.744.606 8.028.067 2.285-.539 4.57-1.179 5.006-1.65 0 0-.034.572-.202.875 0 0 .975-.134 1.31-.37 0 0-.033.404-.268.573 0 0 .57.202 1.008-.068 0 0-.37.337-.27.64.102.303 1.042.404 3.024.64 1.797.213 6.078 3.166 9.44 8.707l-1.008.584a7281.05 7281.05 0 0 0-5.307-3.197c-3.192-1.919-8.399-3.973-12.968-4.141-3.283-.121-7.041-.151-10.474-.962.97.083 2.096.151 2.957.12.347-.013.682-.03 1.003-.045 1.379-.067 2.469-.12 3.22.166a.202.202 0 0 0 .143-.378c-.83-.315-1.956-.26-3.383-.191-.319.015-.652.031-.998.044-1.81.066-4.886-.129-5.923-.681.181-.528.905-2.633.824-3.084zm16.411-7.838l-.041.003c-.056.005-.11.01-.164.013l-.07.004a4.29 4.29 0 0 1-.315.005 23.381 23.381 0 0 0 .279-.198c.2-.14.394-.278.58-.411.754-.539 1.413-1.008 1.87-1.083a.759.759 0 0 1 .121-.012c.04 0 .077.004.111.012.347.077.973.472 1.533.91-.016.06-.025.125-.031.186-.006.06-.009.118-.011.163a.868.868 0 0 1-.015.133c-.017.086-.046.14-.076.163l-.004.003a.048.048 0 0 1-.025.01.11.11 0 0 1-.05-.017c-.108-.058-.158-.256-.167-.32l-.026-.187-.168.084c-.07.035-.144.08-.218.123-.08.047-.19.113-.26.138.02-.345-.329-.634-.368-.666l-.14-.112-.068.165c-.195.472-1.383.806-2.318.894l.041-.003zm-15.501-.162l16.29-9.426 16.288 9.426v7.99c-2.905-2.84-6.003-4.954-9.215-6.285a.394.394 0 0 0-.07-.041c-1.098-.611-2.125-1.484-2.505-1.91-.656-.735-2.038-1.754-2.77-1.917a1.185 1.185 0 0 0-.257-.028c-.673 0-1.426.539-2.38 1.22-.185.132-.376.269-.574.407-.496.345-.751.49-.883.55a23.623 23.623 0 0 0-2.395.202c-2.64.36-5.748 2.226-8.016 3.587-1.008.605-1.96 1.177-2.343 1.277l-1.17.307v-5.359zm33.116-.933L21.307.144a1.071 1.071 0 0 0-1.074 0L3.943 9.571a1.078 1.078 0 0 0-.537.933v5.643c-.889.234-1.481.392-1.584.42-.917.238-1.476.64-1.709 1.226-.346.87.162 1.876.704 2.745.628 1.007 1.291 1.622 2.589 2.096v6.724c0 .385.205.74.537.933l16.29 9.427a1.073 1.073 0 0 0 1.075 0l16.289-9.427c.333-.193.537-.548.537-.933V10.504c0-.385-.204-.74-.537-.933z"/>
    </g>
</svg>
