<?xml version="1.0" encoding="utf-8"?>
<!-- Generator: Adobe Illustrator 22.1.0, SVG Export Plug-In . SVG Version: 6.00 Build 0)  -->
<!DOCTYPE svg PUBLIC "-//W3C//DTD SVG 1.1//EN" "http://www.w3.org/Graphics/SVG/1.1/DTD/svg11.dtd">
<svg version="1.1" id="Layer_1" xmlns="http://www.w3.org/2000/svg" xmlns:xlink="http://www.w3.org/1999/xlink" x="0px" y="0px"
	 viewBox="0 0 630 324" style="enable-background:new 0 0 630 324;" xml:space="preserve">
<style type="text/css">
	.st0{clip-path:url(#SVGID_2_);}
	.st1{clip-path:url(#SVGID_4_);enable-background:new    ;}
	.st2{clip-path:url(#SVGID_6_);}
	.st3{clip-path:url(#SVGID_8_);fill:#333132;}
	.st4{clip-path:url(#SVGID_4_);fill:#FFFFFF;}
	.st5{clip-path:url(#SVGID_10_);}
	.st6{clip-path:url(#SVGID_12_);fill:#231F20;}
</style>
<g>
	<g>
		<defs>
			<rect id="SVGID_9_" width="630" height="324"/>
		</defs>
		<clipPath id="SVGID_2_">
			<use xlink:href="#SVGID_9_"  style="overflow:visible;"/>
		</clipPath>
		<g class="st0">
			<defs>
				<rect id="SVGID_11_" width="630" height="324"/>
			</defs>
			<clipPath id="SVGID_4_">
				<use xlink:href="#SVGID_11_"  style="overflow:visible;"/>
			</clipPath>
			<path style="clip-path:url(#SVGID_4_);fill:#231F20;" d="M97.2,221.5c0-9.8,7.1-16.5,16.1-16.5c5.1,0,8.9,2.2,11.6,5.6l-2.3,1.5
				c-2-2.8-5.5-4.6-9.3-4.6c-7.4,0-13.3,5.7-13.3,14c0,8.2,5.8,14,13.3,14c3.8,0,7.3-1.9,9.3-4.6l2.3,1.4c-2.9,3.5-6.6,5.7-11.6,5.7
				C104.4,238,97.2,231.3,97.2,221.5"/>
			<path style="clip-path:url(#SVGID_4_);fill:#231F20;" d="M133.1,221.5c0-9.3,6.1-16.5,15.5-16.5c9.3,0,15.5,7.2,15.5,16.5
				c0,9.3-6.2,16.5-15.5,16.5C139.2,238,133.1,230.8,133.1,221.5 M161.1,221.5c0-8.1-5-14-12.6-14c-7.7,0-12.6,5.9-12.6,14
				c0,8,4.9,14,12.6,14C156.2,235.5,161.1,229.6,161.1,221.5"/>
			<polygon style="clip-path:url(#SVGID_4_);fill:#231F20;" points="197.3,237.4 177.2,210.1 177.2,237.4 174.5,237.4 174.5,205.6 
				177.3,205.6 197.2,232.6 197.2,205.6 199.9,205.6 199.9,237.4 			"/>
			<path style="clip-path:url(#SVGID_4_);fill:#231F20;" d="M210.5,221.5c0-9.8,7.1-16.5,16.1-16.5c5.1,0,8.9,2.2,11.6,5.6l-2.3,1.5
				c-2-2.8-5.5-4.6-9.3-4.6c-7.4,0-13.3,5.7-13.3,14c0,8.2,5.8,14,13.3,14c3.8,0,7.3-1.9,9.3-4.6l2.3,1.4c-2.9,3.5-6.6,5.7-11.6,5.7
				C217.6,238,210.5,231.3,210.5,221.5"/>
			<polygon style="clip-path:url(#SVGID_4_);fill:#231F20;" points="247.5,237.4 247.5,205.6 267.7,205.6 267.7,208.1 250.2,208.1 
				250.2,219.9 267.3,219.9 267.3,222.4 250.2,222.4 250.2,234.9 267.7,234.9 267.7,237.4 			"/>
			<polygon style="clip-path:url(#SVGID_4_);fill:#231F20;" points="301,237.4 280.9,210.1 280.9,237.4 278.2,237.4 278.2,205.6 
				281,205.6 300.9,232.6 300.9,205.6 303.6,205.6 303.6,237.4 			"/>
			<polygon style="clip-path:url(#SVGID_4_);fill:#231F20;" points="323.5,237.4 323.5,208.1 313.1,208.1 313.1,205.6 336.6,205.6 
				336.6,208.1 326.2,208.1 326.2,237.4 			"/>
			<path style="clip-path:url(#SVGID_4_);fill:#231F20;" d="M364.7,237.4l-8.9-13.2h-7v13.2h-2.7v-31.8H358c5.5,0,9.7,3.5,9.7,9.3
				c0,5.8-4.1,9-8.8,9.2l9.2,13.4H364.7z M364.8,214.9c0-4-2.8-6.8-7.1-6.8h-8.9v13.7h8.9C362,221.8,364.8,218.9,364.8,214.9"/>
			<rect x="378.2" y="205.6" style="clip-path:url(#SVGID_4_);fill:#231F20;" width="2.7" height="31.8"/>
			<path style="clip-path:url(#SVGID_4_);fill:#231F20;" d="M391.5,221.5c0-9.8,7.1-16.5,16.1-16.5c5.1,0,8.9,2.2,11.6,5.6l-2.3,1.5
				c-2-2.8-5.5-4.6-9.3-4.6c-7.4,0-13.3,5.7-13.3,14c0,8.2,5.8,14,13.3,14c3.8,0,7.3-1.9,9.3-4.6l2.3,1.4c-2.9,3.5-6.6,5.7-11.6,5.7
				C398.6,238,391.5,231.3,391.5,221.5"/>
			<path style="clip-path:url(#SVGID_4_);fill:#231F20;" d="M442.9,232.9l1.8-2.1c2,2.3,5.4,4.6,10,4.6c6.5,0,8.3-3.6,8.3-6.3
				c0-9.3-19.1-4.5-19.1-15.6c0-5.2,4.7-8.5,10.4-8.5c4.7,0,8.3,1.7,10.8,4.5l-1.8,2c-2.3-2.8-5.5-4-9.1-4c-4.2,0-7.4,2.4-7.4,5.9
				c0,8.2,19.1,3.7,19.1,15.6c0,4.1-2.7,9-11.3,9C449.3,238,445.3,235.9,442.9,232.9"/>
			<polygon style="clip-path:url(#SVGID_4_);fill:#231F20;" points="495.6,237.4 482.4,222.5 478.9,226.3 478.9,237.4 476.2,237.4 
				476.2,205.6 478.9,205.6 478.9,223 494.3,205.6 497.7,205.6 484.2,220.8 499,237.4 			"/>
			<polygon style="clip-path:url(#SVGID_4_);fill:#231F20;" points="517.3,237.4 517.3,223.8 504.7,205.6 508,205.6 518.7,221.3 
				529.5,205.6 532.8,205.6 520.1,223.8 520.1,237.4 			"/>
			<path style="clip-path:url(#SVGID_4_);fill:#231F20;" d="M342.1,161.2c-3.6,0-6.9-1.2-9.5-3.1c-1.3-1-2.5-2.1-3.4-3.4
				c-2-2.7-3.2-6-3.2-9.6c0-8.9,7.3-16.2,16.2-16.2c0.6,0,1.2,0,1.7,0.1c1.6,0.2,3.2,0.6,4.7,1.2c5.8,2.5,9.8,8.2,9.8,14.9
				C358.3,154,351,161.2,342.1,161.2 M308.7,161.2c-19.4,0-35.2-15.8-35.2-35.2s15.8-35.2,35.2-35.2c18.8,0,34.2,14.8,35.2,33.4
				c-0.6-0.1-1.2-0.1-1.8-0.1c-11.6,0-20.9,9.4-20.9,20.9c0,4.5,1.5,8.7,3.9,12.2C320.2,159.8,314.6,161.2,308.7,161.2 M348.7,125.1
				c-0.5-21.7-18.2-39.1-40-39.1c-22,0-40,17.9-40,40c0,22.1,17.9,40,40,40c7.1,0,13.8-1.9,19.6-5.2c3.7,3.2,8.5,5.2,13.8,5.2
				c11.6,0,21-9.4,21-20.9C363,135.8,357,127.9,348.7,125.1"/>
		</g>
	</g>
</g>
</svg>
