<?xml version="1.0" encoding="utf-8"?>
<!-- Generator: Adobe Illustrator 22.1.0, SVG Export Plug-In . SVG Version: 6.00 Build 0)  -->
<!DOCTYPE svg PUBLIC "-//W3C//DTD SVG 1.1//EN" "http://www.w3.org/Graphics/SVG/1.1/DTD/svg11.dtd">
<svg version="1.1" id="Layer_1" xmlns="http://www.w3.org/2000/svg" xmlns:xlink="http://www.w3.org/1999/xlink" x="0px" y="0px"
	 viewBox="0 0 630 324" style="enable-background:new 0 0 630 324;" xml:space="preserve">
<style type="text/css">
	.st0{clip-path:url(#SVGID_2_);}
	.st1{clip-path:url(#SVGID_4_);enable-background:new    ;}
	.st2{clip-path:url(#SVGID_6_);}
	.st3{clip-path:url(#SVGID_8_);fill:#333132;}
	.st4{clip-path:url(#SVGID_4_);fill:#FFFFFF;}
	.st5{clip-path:url(#SVGID_10_);}
	.st6{clip-path:url(#SVGID_12_);fill:#231F20;}
</style>
<g>
	<g>
		<defs>
			<rect id="SVGID_1_" width="630" height="324"/>
		</defs>
		<clipPath id="SVGID_2_">
			<use xlink:href="#SVGID_1_"  style="overflow:visible;"/>
		</clipPath>
		<g class="st0">
			<defs>
				<rect id="SVGID_3_" width="630" height="324"/>
			</defs>
			<clipPath id="SVGID_4_">
				<use xlink:href="#SVGID_3_"  style="overflow:visible;"/>
			</clipPath>
			<g class="st1">
				<g>
					<defs>
						<rect id="SVGID_5_" width="630" height="324"/>
					</defs>
					<clipPath id="SVGID_6_">
						<use xlink:href="#SVGID_5_"  style="overflow:visible;"/>
					</clipPath>
					<g class="st2">
						<defs>
							<rect id="SVGID_7_" x="0" y="0" width="630" height="324"/>
						</defs>
						<clipPath id="SVGID_8_">
							<use xlink:href="#SVGID_7_"  style="overflow:visible;"/>
						</clipPath>
						<rect x="0" class="st3" width="630" height="324"/>
					</g>
				</g>
			</g>
			<path class="st4" d="M109.7,222c0-9.8,7.1-16.5,16.1-16.5c5.1,0,8.9,2.2,11.6,5.6l-2.3,1.5c-2-2.8-5.5-4.6-9.3-4.6
				c-7.4,0-13.3,5.7-13.3,14c0,8.2,5.8,14,13.3,14c3.8,0,7.3-1.9,9.3-4.6l2.3,1.4c-2.9,3.5-6.6,5.7-11.6,5.7
				C116.8,238.5,109.7,231.8,109.7,222"/>
			<path class="st4" d="M143.6,222c0-9.3,6.1-16.5,15.5-16.5c9.3,0,15.5,7.2,15.5,16.5c0,9.3-6.2,16.5-15.5,16.5
				C149.7,238.5,143.6,231.3,143.6,222 M171.6,222c0-8.1-5-14-12.6-14c-7.7,0-12.6,5.9-12.6,14c0,8,4.9,14,12.6,14
				C166.7,236,171.6,230.1,171.6,222"/>
			<polygon class="st4" points="205.9,237.9 185.8,210.6 185.8,237.9 183.1,237.9 183.1,206.1 185.9,206.1 205.8,233.1 205.8,206.1 
				208.5,206.1 208.5,237.9 			"/>
			<path class="st4" d="M217.2,222c0-9.8,7.1-16.5,16.1-16.5c5.1,0,8.9,2.2,11.6,5.6l-2.3,1.5c-2-2.8-5.5-4.6-9.3-4.6
				c-7.4,0-13.3,5.7-13.3,14c0,8.2,5.8,14,13.3,14c3.8,0,7.3-1.9,9.3-4.6l2.3,1.4c-2.9,3.5-6.6,5.7-11.6,5.7
				C224.3,238.5,217.2,231.8,217.2,222"/>
			<polygon class="st4" points="252.3,237.9 252.3,206.1 272.5,206.1 272.5,208.6 255,208.6 255,220.4 272.1,220.4 272.1,222.9 
				255,222.9 255,235.4 272.5,235.4 272.5,237.9 			"/>
			<polygon class="st4" points="304.8,237.9 284.8,210.6 284.8,237.9 282,237.9 282,206.1 284.8,206.1 304.7,233.1 304.7,206.1 
				307.5,206.1 307.5,237.9 			"/>
			<polygon class="st4" points="326.4,237.9 326.4,208.6 316,208.6 316,206.1 339.5,206.1 339.5,208.6 329.1,208.6 329.1,237.9 			
				"/>
			<path class="st4" d="M366.7,237.9l-8.9-13.2h-7v13.2H348v-31.8h11.9c5.5,0,9.7,3.5,9.7,9.3c0,5.8-4.1,9-8.8,9.2l9.2,13.4H366.7z
				 M366.7,215.4c0-4-2.8-6.8-7.1-6.8h-8.9v13.7h8.9C363.9,222.3,366.7,219.4,366.7,215.4"/>
			<rect x="381.1" y="206.1" class="st4" width="2.7" height="31.8"/>
			<path class="st4" d="M394.3,222c0-9.8,7.1-16.5,16.1-16.5c5.1,0,8.9,2.2,11.6,5.6l-2.3,1.5c-2-2.8-5.5-4.6-9.3-4.6
				c-7.4,0-13.3,5.7-13.3,14c0,8.2,5.8,14,13.3,14c3.8,0,7.3-1.9,9.3-4.6l2.3,1.4c-2.9,3.5-6.6,5.7-11.6,5.7
				C401.4,238.5,394.3,231.8,394.3,222"/>
			<path class="st4" d="M438.1,233.4l1.8-2.1c2.1,2.3,5.4,4.6,10,4.6c6.5,0,8.3-3.6,8.3-6.3c0-9.3-19.1-4.5-19.1-15.6
				c0-5.2,4.7-8.5,10.4-8.5c4.7,0,8.3,1.7,10.8,4.5l-1.8,2c-2.3-2.8-5.5-4-9.1-4c-4.2,0-7.4,2.4-7.4,5.9c0,8.2,19.1,3.7,19.1,15.5
				c0,4.1-2.7,9-11.3,9C444.5,238.5,440.5,236.4,438.1,233.4"/>
			<polygon class="st4" points="486.9,237.9 473.8,223 470.3,226.8 470.3,237.9 467.6,237.9 467.6,206.1 470.3,206.1 470.3,223.5 
				485.7,206.1 489.1,206.1 475.6,221.3 490.4,237.9 			"/>
			<polygon class="st4" points="504.9,237.9 504.9,224.3 492.3,206.1 495.6,206.1 506.3,221.8 517,206.1 520.3,206.1 507.7,224.3 
				507.7,237.9 			"/>
			<path class="st4" d="M340.2,160.7c-3.6,0-6.9-1.2-9.5-3.1c-1.3-1-2.5-2.1-3.4-3.4c-2-2.7-3.2-6-3.2-9.6c0-8.9,7.3-16.2,16.2-16.2
				c0.6,0,1.2,0,1.7,0.1c1.6,0.2,3.2,0.6,4.7,1.2c5.8,2.5,9.8,8.2,9.8,14.9C356.4,153.5,349.1,160.7,340.2,160.7 M306.8,160.7
				c-19.4,0-35.2-15.8-35.2-35.2s15.8-35.2,35.2-35.2c18.8,0,34.2,14.8,35.2,33.4c-0.6,0-1.2-0.1-1.8-0.1
				c-11.6,0-20.9,9.4-20.9,20.9c0,4.5,1.5,8.7,3.9,12.2C318.3,159.3,312.7,160.7,306.8,160.7 M346.8,124.6
				c-0.5-21.7-18.2-39.1-40-39.1c-22,0-40,17.9-40,40c0,22.1,17.9,40,40,40c7.1,0,13.8-1.9,19.6-5.2c3.7,3.2,8.5,5.2,13.8,5.2
				c11.6,0,21-9.4,21-20.9C361.1,135.3,355.1,127.4,346.8,124.6"/>
		</g>
	</g>
</g>
</svg>
